<svg width="500" height="320" viewBox="0 0 500 320" fill="none" xmlns="http://www.w3.org/2000/svg">
<circle cx="247.762" cy="184.903" r="127.884" fill="url(#paint0_linear_22894_9632)" stroke="url(#paint1_linear_22894_9632)" stroke-dasharray="2 2"/>
<rect x="112" y="165.719" width="40" height="40" rx="20" fill="#0063C6"/>
<path d="M133.825 188.983H130.157L129.569 190.719H127.063L130.619 180.891H133.391L136.947 190.719H134.413L133.825 188.983ZM133.209 187.135L131.991 183.537L130.787 187.135H133.209Z" fill="white"/>
<path d="M129.33 207.719H134.67C137.99 207.719 139.34 210.069 137.69 212.939L136.95 214.219C136.77 214.529 136.44 214.719 136.08 214.719H127.92C127.56 214.719 127.23 214.529 127.05 214.219L126.31 212.939C124.66 210.069 126.01 207.719 129.33 207.719Z" fill="#0063C6"/>
<path d="M128.79 215.719H135.22C135.61 215.719 135.85 216.139 135.65 216.469L135.01 217.569C133.36 220.439 130.64 220.439 128.99 217.569L128.35 216.469C128.16 216.139 128.4 215.719 128.79 215.719Z" fill="#0063C6"/>
<rect x="179.881" y="44.7135" width="40" height="40" rx="20" fill="#0063C6"/>
<path d="M202.085 64.6735C202.654 64.7948 203.111 65.0795 203.457 65.5275C203.802 65.9662 203.975 66.4702 203.975 67.0395C203.975 67.8608 203.685 68.5142 203.107 68.9995C202.537 69.4755 201.739 69.7135 200.713 69.7135H196.135V59.8855H200.559C201.557 59.8855 202.337 60.1142 202.897 60.5715C203.466 61.0288 203.751 61.6495 203.751 62.4335C203.751 63.0122 203.597 63.4928 203.289 63.8755C202.99 64.2582 202.589 64.5242 202.085 64.6735ZM198.529 63.8615H200.097C200.489 63.8615 200.787 63.7775 200.993 63.6095C201.207 63.4322 201.315 63.1755 201.315 62.8395C201.315 62.5035 201.207 62.2468 200.993 62.0695C200.787 61.8922 200.489 61.8035 200.097 61.8035H198.529V63.8615ZM200.293 67.7815C200.694 67.7815 201.002 67.6928 201.217 67.5155C201.441 67.3288 201.553 67.0628 201.553 66.7175C201.553 66.3722 201.436 66.1015 201.203 65.9055C200.979 65.7095 200.666 65.6115 200.265 65.6115H198.529V67.7815H200.293Z" fill="white"/>
<path d="M197.211 86.7135H202.551C205.871 86.7135 207.221 89.0635 205.571 91.9335L204.831 93.2135C204.651 93.5235 204.321 93.7135 203.961 93.7135H195.801C195.441 93.7135 195.111 93.5235 194.931 93.2135L194.191 91.9335C192.541 89.0635 193.891 86.7135 197.211 86.7135Z" fill="#0063C6"/>
<path d="M196.671 94.7135H203.101C203.491 94.7135 203.731 95.1335 203.531 95.4635L202.891 96.5635C201.241 99.4335 198.521 99.4335 196.871 96.5635L196.231 95.4635C196.041 95.1335 196.281 94.7135 196.671 94.7135Z" fill="#0063C6"/>
<rect x="348.108" y="100.789" width="40" height="40" rx="20" fill="#0063C6"/>
<path d="M363.238 120.861C363.238 119.891 363.448 119.027 363.868 118.271C364.288 117.506 364.871 116.913 365.618 116.493C366.374 116.064 367.228 115.849 368.18 115.849C369.347 115.849 370.345 116.157 371.176 116.773C372.007 117.389 372.562 118.229 372.842 119.293H370.21C370.014 118.883 369.734 118.57 369.37 118.355C369.015 118.141 368.609 118.033 368.152 118.033C367.415 118.033 366.817 118.29 366.36 118.803C365.903 119.317 365.674 120.003 365.674 120.861C365.674 121.72 365.903 122.406 366.36 122.919C366.817 123.433 367.415 123.689 368.152 123.689C368.609 123.689 369.015 123.582 369.37 123.367C369.734 123.153 370.014 122.84 370.21 122.429H372.842C372.562 123.493 372.007 124.333 371.176 124.949C370.345 125.556 369.347 125.859 368.18 125.859C367.228 125.859 366.374 125.649 365.618 125.229C364.871 124.8 364.288 124.207 363.868 123.451C363.448 122.695 363.238 121.832 363.238 120.861Z" fill="white"/>
<path d="M365.438 142.789H370.778C374.098 142.789 375.448 145.139 373.798 148.009L373.058 149.289C372.878 149.599 372.548 149.789 372.188 149.789H364.028C363.668 149.789 363.338 149.599 363.158 149.289L362.418 148.009C360.768 145.139 362.118 142.789 365.438 142.789Z" fill="#0063C6"/>
<path d="M364.898 150.789H371.328C371.718 150.789 371.958 151.209 371.758 151.539L371.118 152.639C369.468 155.509 366.748 155.509 365.098 152.639L364.458 151.539C364.268 151.209 364.508 150.789 364.898 150.789Z" fill="#0063C6"/>
<circle cx="247.762" cy="187.854" r="9.37838" fill="#0063C6" stroke="#BFDFFF" stroke-width="4"/>
<defs>
<linearGradient id="paint0_linear_22894_9632" x1="264.5" y1="297" x2="261" y2="43" gradientUnits="userSpaceOnUse">
<stop offset="0.225962" stop-color="#909090" stop-opacity="0"/>
<stop offset="1" stop-color="white" stop-opacity="0.5"/>
</linearGradient>
<linearGradient id="paint1_linear_22894_9632" x1="247.762" y1="56.5189" x2="248" y2="278.5" gradientUnits="userSpaceOnUse">
<stop stop-color="#CBCBCB"/>
<stop offset="1" stop-color="#AFAFAF" stop-opacity="0"/>
</linearGradient>
</defs>
</svg>
