<svg width="732" height="320" viewBox="0 0 732 320" fill="none" xmlns="http://www.w3.org/2000/svg">
<path d="M345.443 209.913L356.01 215.526L365.377 250.345C365.96 252.508 365.403 253.5 363.867 253.91L333.908 261.905C331.988 262.418 331.392 261.733 330.81 259.57L319.908 219.047C319.537 217.67 320.094 216.678 321.63 216.268L345.443 209.913Z" fill="white"/>
<path d="M345.443 209.913C345.443 209.913 346.819 215.027 347.137 216.208C347.454 217.388 347.752 217.73 349.097 217.371C350.441 217.013 356.01 215.526 356.01 215.526M345.443 209.913L356.01 215.526M345.443 209.913C345.443 209.913 323.166 215.858 321.63 216.268C320.094 216.678 319.537 217.67 319.908 219.047C320.278 220.424 330.228 257.406 330.81 259.57C331.392 261.733 331.988 262.418 333.908 261.905C335.828 261.393 362.33 254.32 363.867 253.91C365.403 253.5 365.96 252.508 365.377 250.345C364.795 248.181 356.01 215.526 356.01 215.526" stroke="#E2E2E2"/>
<path d="M407.822 214.149L415.824 223.024L412.669 258.933C412.473 261.165 411.61 261.907 410.025 261.769L379.128 259.077C377.148 258.905 376.823 258.059 377.019 255.827L380.69 214.034C380.814 212.614 381.678 211.871 383.262 212.009L407.822 214.149Z" fill="white"/>
<path d="M407.822 214.149C407.822 214.149 407.359 219.424 407.252 220.642C407.145 221.859 407.307 222.282 408.694 222.403C410.08 222.523 415.824 223.024 415.824 223.024M407.822 214.149L415.824 223.024M407.822 214.149C407.822 214.149 384.847 212.147 383.262 212.009C381.678 211.871 380.814 212.614 380.69 214.034C380.565 215.454 377.215 253.595 377.019 255.827C376.823 258.058 377.148 258.905 379.128 259.077C381.108 259.25 408.441 261.631 410.025 261.769C411.61 261.907 412.473 261.165 412.669 258.933C412.865 256.702 415.824 223.024 415.824 223.024" stroke="#E2E2E2"/>
<path d="M375.494 206L384.242 214.146V250.193C384.242 252.433 383.446 253.247 381.856 253.247H350.84C348.852 253.247 348.455 252.433 348.455 250.193V208.24C348.455 206.815 349.25 206 350.84 206H375.494Z" fill="white"/>
<path d="M375.494 206C375.494 206 375.494 211.295 375.494 212.517C375.494 213.739 375.692 214.146 377.084 214.146C378.476 214.146 384.242 214.146 384.242 214.146M375.494 206L384.242 214.146M375.494 206C375.494 206 352.431 206 350.84 206C349.25 206 348.455 206.815 348.455 208.24C348.455 209.666 348.455 247.953 348.455 250.193C348.455 252.433 348.852 253.247 350.84 253.247C352.828 253.247 380.265 253.247 381.856 253.247C383.446 253.247 384.242 252.433 384.242 250.193C384.242 247.953 384.242 214.146 384.242 214.146" stroke="#E2E2E2"/>
<path d="M347.342 227.551C347.342 227.551 328.616 227.551 320.294 227.551C311.971 227.551 313.636 232.11 313.636 236.255C313.636 240.399 316.549 282.259 317.797 287.647C319.046 293.035 321.542 294.693 326.952 295.521C332.362 296.35 402.687 295.936 407.681 295.521C412.674 295.107 414.755 292.62 415.587 287.647C416.419 282.673 418.5 246.616 418.5 246.616C418.5 241.643 417.668 239.57 411.842 239.57L362.323 239.156L347.342 227.551Z" fill="#40A0FF" stroke="#EEEEEE"/>
<rect x="266.5" y="87.5" width="198" height="55" rx="7.5" fill="white" stroke="#E2E2E2"/>
<rect x="274" y="96" width="38" height="38" rx="4" fill="#F6F6F6"/>
<path opacity="0.4" d="M300.86 111.09C300.86 111.24 300.86 111.39 300.85 111.53C299.32 110.96 297.52 111.31 296.32 112.39C295.51 111.66 294.46 111.25 293.34 111.25C290.88 111.25 288.88 113.26 288.88 115.74C288.88 118.57 290.3 120.64 291.66 121.98C291.55 121.97 291.46 121.95 291.38 121.92C288.79 121.03 283 117.35 283 111.09C283 108.33 285.22 106.1 287.96 106.1C289.59 106.1 291.03 106.88 291.93 108.09C292.84 106.88 294.28 106.1 295.9 106.1C298.64 106.1 300.86 108.33 300.86 111.09Z" fill="#40A0FF"/>
<path d="M299 112.59C297.93 112.59 296.96 113.11 296.36 113.91C295.76 113.11 294.8 112.59 293.72 112.59C291.9 112.59 290.42 114.07 290.42 115.91C290.42 116.62 290.53 117.27 290.73 117.87C291.67 120.84 294.56 122.61 295.99 123.1C296.19 123.17 296.52 123.17 296.73 123.1C298.16 122.61 301.05 120.84 301.99 117.87C302.19 117.26 302.3 116.61 302.3 115.91C302.3 114.07 300.82 112.59 299 112.59Z" fill="#40A0FF"/>
<rect x="320" y="126" width="137" height="8" rx="2" fill="#F6F6F6"/>
<rect x="320" y="111" width="137" height="8" rx="2" fill="#F6F6F6"/>
<rect x="320" y="96" width="137" height="8" rx="2" fill="#F6F6F6"/>
<rect x="67.5" y="25.5" width="198" height="55" rx="7.5" fill="white" stroke="#E2E2E2"/>
<rect x="75" y="34" width="38" height="38" rx="4" fill="#F6F6F6"/>
<path opacity="0.4" d="M91 43C88.38 43 86.25 45.13 86.25 47.75C86.25 50.32 88.26 52.4 90.88 52.49C90.96 52.48 91.04 52.48 91.1 52.49C91.12 52.49 91.13 52.49 91.15 52.49C91.16 52.49 91.16 52.49 91.17 52.49C93.73 52.4 95.74 50.32 95.75 47.75C95.75 45.13 93.62 43 91 43Z" fill="#40A0FF"/>
<path d="M96.08 55.15C93.29 53.29 88.74 53.29 85.93 55.15C84.66 56 83.96 57.15 83.96 58.38C83.96 59.61 84.66 60.75 85.92 61.59C87.32 62.53 89.16 63 91 63C92.84 63 94.68 62.53 96.08 61.59C97.34 60.74 98.04 59.6 98.04 58.36C98.03 57.13 97.34 55.99 96.08 55.15Z" fill="#40A0FF"/>
<path opacity="0.4" d="M101.99 48.34C102.15 50.28 100.77 51.98 98.8599 52.21C98.8499 52.21 98.8499 52.21 98.8399 52.21H98.8099C98.7499 52.21 98.6899 52.21 98.6399 52.23C97.6699 52.28 96.7799 51.97 96.1099 51.4C97.1399 50.48 97.7299 49.1 97.6099 47.6C97.5399 46.79 97.2599 46.05 96.8399 45.42C97.2199 45.23 97.6599 45.11 98.1099 45.07C100.07 44.9 101.82 46.36 101.99 48.34Z" fill="#40A0FF"/>
<path d="M103.99 57.59C103.91 58.56 103.29 59.4 102.25 59.97C101.25 60.52 99.9902 60.78 98.7402 60.75C99.4602 60.1 99.8802 59.29 99.9602 58.43C100.06 57.19 99.4702 56 98.2902 55.05C97.6202 54.52 96.8402 54.1 95.9902 53.79C98.2002 53.15 100.98 53.58 102.69 54.96C103.61 55.7 104.08 56.63 103.99 57.59Z" fill="#40A0FF"/>
<rect x="121" y="64" width="137" height="8" rx="2" fill="#F6F6F6"/>
<rect x="121" y="49" width="137" height="8" rx="2" fill="#F6F6F6"/>
<rect x="121" y="34" width="137" height="8" rx="2" fill="#F6F6F6"/>
<rect x="465.5" y="25.5" width="198" height="55" rx="7.5" fill="white" stroke="#E2E2E2"/>
<rect x="473" y="34" width="38" height="38" rx="4" fill="#F6F6F6"/>
<path opacity="0.4" d="M494.19 43H485.81C482.17 43 480 45.17 480 48.81V57.19C480 60.83 482.17 63 485.81 63H494.19C497.83 63 500 60.83 500 57.19V48.81C500 45.17 497.83 43 494.19 43Z" fill="#40A0FF"/>
<path d="M496.31 49.87C496.31 50.28 495.98 50.62 495.56 50.62H490.31C489.9 50.62 489.56 50.28 489.56 49.87C489.56 49.46 489.9 49.12 490.31 49.12H495.56C495.98 49.12 496.31 49.46 496.31 49.87Z" fill="#40A0FF"/>
<path d="M487.97 48.9L485.72 51.15C485.57 51.3 485.38 51.37 485.19 51.37C485 51.37 484.8 51.3 484.66 51.15L483.91 50.4C483.61 50.11 483.61 49.63 483.91 49.34C484.2 49.05 484.67 49.05 484.97 49.34L485.19 49.56L486.91 47.84C487.2 47.55 487.67 47.55 487.97 47.84C488.26 48.13 488.26 48.61 487.97 48.9Z" fill="#40A0FF"/>
<path d="M496.31 56.87C496.31 57.28 495.98 57.62 495.56 57.62H490.31C489.9 57.62 489.56 57.28 489.56 56.87C489.56 56.46 489.9 56.12 490.31 56.12H495.56C495.98 56.12 496.31 56.46 496.31 56.87Z" fill="#40A0FF"/>
<path d="M487.97 55.9L485.72 58.15C485.57 58.3 485.38 58.37 485.19 58.37C485 58.37 484.8 58.3 484.66 58.15L483.91 57.4C483.61 57.11 483.61 56.63 483.91 56.34C484.2 56.05 484.67 56.05 484.97 56.34L485.19 56.56L486.91 54.84C487.2 54.55 487.67 54.55 487.97 54.84C488.26 55.13 488.26 55.61 487.97 55.9Z" fill="#40A0FF"/>
<rect x="519" y="64" width="137" height="8" rx="2" fill="#F6F6F6"/>
<rect x="519" y="49" width="137" height="8" rx="2" fill="#F6F6F6"/>
<rect x="519" y="34" width="137" height="8" rx="2" fill="#F6F6F6"/>
<path d="M158.333 90.5C158.333 91.9728 159.527 93.1667 161 93.1667C162.473 93.1667 163.667 91.9728 163.667 90.5C163.667 89.0272 162.473 87.8333 161 87.8333C159.527 87.8333 158.333 89.0272 158.333 90.5ZM161 169.5H160.5C160.5 169.776 160.724 170 161 170V169.5ZM580.5 169.5V170C580.776 170 581 169.776 581 169.5H580.5ZM577.833 90.5C577.833 91.9728 579.027 93.1667 580.5 93.1667C581.973 93.1667 583.167 91.9728 583.167 90.5C583.167 89.0272 581.973 87.8333 580.5 87.8333C579.027 87.8333 577.833 89.0272 577.833 90.5ZM368.083 195.5C368.083 196.973 369.277 198.167 370.75 198.167C372.223 198.167 373.417 196.973 373.417 195.5C373.417 194.027 372.223 192.833 370.75 192.833C369.277 192.833 368.083 194.027 368.083 195.5ZM368.083 151C368.083 152.473 369.277 153.667 370.75 153.667C372.223 153.667 373.417 152.473 373.417 151C373.417 149.527 372.223 148.333 370.75 148.333C369.277 148.333 368.083 149.527 368.083 151ZM161 90.5H160.5V92.475H161H161.5V90.5H161ZM161 96.425H160.5V100.375H161H161.5V96.425H161ZM161 104.325H160.5V108.275H161H161.5V104.325H161ZM161 112.225H160.5V116.175H161H161.5V112.225H161ZM161 120.125H160.5V124.075H161H161.5V120.125H161ZM161 128.025H160.5V131.975H161H161.5V128.025H161ZM161 135.925H160.5V139.875H161H161.5V135.925H161ZM161 143.825H160.5V147.775H161H161.5V143.825H161ZM161 151.725H160.5V155.675H161H161.5V151.725H161ZM161 159.625H160.5V163.575H161H161.5V159.625H161ZM161 167.525H160.5V169.5H161H161.5V167.525H161ZM161 169.5V170H163.017V169.5V169H161V169.5ZM167.05 169.5V170H171.084V169.5V169H167.05V169.5ZM175.118 169.5V170H179.151V169.5V169H175.118V169.5ZM183.185 169.5V170H187.219V169.5V169H183.185V169.5ZM191.252 169.5V170H195.286V169.5V169H191.252V169.5ZM199.32 169.5V170H203.353V169.5V169H199.32V169.5ZM207.387 169.5V170H211.421V169.5V169H207.387V169.5ZM215.454 169.5V170H219.488V169.5V169H215.454V169.5ZM223.522 169.5V170H227.555V169.5V169H223.522V169.5ZM231.589 169.5V170H235.623V169.5V169H231.589V169.5ZM239.656 169.5V170H243.69V169.5V169H239.656V169.5ZM247.724 169.5V170H251.757V169.5V169H247.724V169.5ZM255.791 169.5V170H259.825V169.5V169H255.791V169.5ZM263.858 169.5V170H267.892V169.5V169H263.858V169.5ZM271.925 169.5V170H275.959V169.5V169H271.925V169.5ZM279.993 169.5V170H284.026V169.5V169H279.993V169.5ZM288.06 169.5V170H292.094V169.5V169H288.06V169.5ZM296.127 169.5V170H300.161V169.5V169H296.127V169.5ZM304.195 169.5V170H308.228V169.5V169H304.195V169.5ZM312.262 169.5V170H316.296V169.5V169H312.262V169.5ZM320.329 169.5V170H324.363V169.5V169H320.329V169.5ZM328.397 169.5V170H332.43V169.5V169H328.397V169.5ZM336.464 169.5V170H340.498V169.5V169H336.464V169.5ZM344.531 169.5V170H348.565V169.5V169H344.531V169.5ZM352.599 169.5V170H356.632V169.5V169H352.599V169.5ZM360.666 169.5V170H364.7V169.5V169H360.666V169.5ZM368.733 169.5V170H370.75V169.5V169H368.733V169.5ZM370.75 169.5V170H372.767V169.5V169H370.75V169.5ZM376.8 169.5V170H380.834V169.5V169H376.8V169.5ZM384.868 169.5V170H388.901V169.5V169H384.868V169.5ZM392.935 169.5V170H396.969V169.5V169H392.935V169.5ZM401.002 169.5V170H405.036V169.5V169H401.002V169.5ZM409.07 169.5V170H413.103V169.5V169H409.07V169.5ZM417.137 169.5V170H421.171V169.5V169H417.137V169.5ZM425.204 169.5V170H429.238V169.5V169H425.204V169.5ZM433.272 169.5V170H437.305V169.5V169H433.272V169.5ZM441.339 169.5V170H445.373V169.5V169H441.339V169.5ZM449.406 169.5V170H453.44V169.5V169H449.406V169.5ZM457.474 169.5V170H461.507V169.5V169H457.474V169.5ZM465.541 169.5V170H469.574V169.5V169H465.541V169.5ZM473.608 169.5V170H477.642V169.5V169H473.608V169.5ZM481.675 169.5V170H485.709V169.5V169H481.675V169.5ZM489.743 169.5V170H493.776V169.5V169H489.743V169.5ZM497.81 169.5V170H501.844V169.5V169H497.81V169.5ZM505.877 169.5V170H509.911V169.5V169H505.877V169.5ZM513.945 169.5V170H517.978V169.5V169H513.945V169.5ZM522.012 169.5V170H526.046V169.5V169H522.012V169.5ZM530.079 169.5V170H534.113V169.5V169H530.079V169.5ZM538.147 169.5V170H542.18V169.5V169H538.147V169.5ZM546.214 169.5V170H550.248V169.5V169H546.214V169.5ZM554.281 169.5V170H558.315V169.5V169H554.281V169.5ZM562.349 169.5V170H566.382V169.5V169H562.349V169.5ZM570.416 169.5V170H574.45V169.5V169H570.416V169.5ZM578.483 169.5V170H580.5V169.5V169H578.483V169.5ZM580.5 169.5H581V167.525H580.5H580V169.5H580.5ZM580.5 163.575H581V159.625H580.5H580V163.575H580.5ZM580.5 155.675H581V151.725H580.5H580V155.675H580.5ZM580.5 147.775H581V143.825H580.5H580V147.775H580.5ZM580.5 139.875H581V135.925H580.5H580V139.875H580.5ZM580.5 131.975H581V128.025H580.5H580V131.975H580.5ZM580.5 124.075H581V120.125H580.5H580V124.075H580.5ZM580.5 116.175H581V112.225H580.5H580V116.175H580.5ZM580.5 108.275H581V104.325H580.5H580V108.275H580.5ZM580.5 100.375H581V96.425H580.5H580V100.375H580.5ZM580.5 92.475H581V90.5H580.5H580V92.475H580.5ZM370.75 169.5H370.25V171.667H370.75H371.25V169.5H370.75ZM370.75 176H370.25V180.333H370.75H371.25V176H370.75ZM370.75 184.667H370.25V189H370.75H371.25V184.667H370.75ZM370.75 193.333H370.25V195.5H370.75H371.25V193.333H370.75ZM370.75 151H370.25V153.312H370.75H371.25V151H370.75ZM370.75 157.938H370.25V162.562H370.75H371.25V157.938H370.75ZM370.75 167.188H370.25V169.5H370.75H371.25V167.188H370.75Z" fill="#E2E2E2"/>
</svg>
