<svg width="40" height="40" viewBox="0 0 40 40" fill="none" xmlns="http://www.w3.org/2000/svg">
<rect width="40" height="40" rx="20" fill="#EDFAFF"/>
<path d="M19.6665 24.1667V27.5" stroke="#00468C" stroke-width="2" stroke-linecap="round" stroke-linejoin="round"/>
<path d="M21.5874 16.275L22.3566 15.9567" stroke="#00468C" stroke-width="2" stroke-linecap="round" stroke-linejoin="round"/>
<path d="M22.3566 14.0433L21.5874 13.7242" stroke="#00468C" stroke-width="2" stroke-linecap="round" stroke-linejoin="round"/>
<path d="M23.7098 12.69L23.3906 11.92" stroke="#00468C" stroke-width="2" stroke-linecap="round" stroke-linejoin="round"/>
<path d="M23.7098 17.31L23.3906 18.0792" stroke="#00468C" stroke-width="2" stroke-linecap="round" stroke-linejoin="round"/>
<path d="M25.6233 12.69L25.9425 11.92" stroke="#00468C" stroke-width="2" stroke-linecap="round" stroke-linejoin="round"/>
<path d="M25.9416 18.08L25.6233 17.31" stroke="#00468C" stroke-width="2" stroke-linecap="round" stroke-linejoin="round"/>
<path d="M26.9766 14.0433L27.7466 13.7242" stroke="#00468C" stroke-width="2" stroke-linecap="round" stroke-linejoin="round"/>
<path d="M26.9766 15.9567L27.7466 16.2758" stroke="#00468C" stroke-width="2" stroke-linecap="round" stroke-linejoin="round"/>
<path d="M27.9999 20.8333V22.5C27.9999 22.942 27.8243 23.366 27.5118 23.6785C27.1992 23.9911 26.7753 24.1667 26.3333 24.1667H12.9999C12.5579 24.1667 12.134 23.9911 11.8214 23.6785C11.5088 23.366 11.3333 22.942 11.3333 22.5V14.1667C11.3333 13.7246 11.5088 13.3007 11.8214 12.9882C12.134 12.6756 12.5579 12.5 12.9999 12.5H18.8333" stroke="#00468C" stroke-width="2" stroke-linecap="round" stroke-linejoin="round"/>
<path d="M16.3333 27.5H22.9999" stroke="#00468C" stroke-width="2" stroke-linecap="round" stroke-linejoin="round"/>
<path d="M24.6665 17.5C26.0472 17.5 27.1665 16.3807 27.1665 15C27.1665 13.6193 26.0472 12.5 24.6665 12.5C23.2858 12.5 22.1665 13.6193 22.1665 15C22.1665 16.3807 23.2858 17.5 24.6665 17.5Z" stroke="#00468C" stroke-width="2" stroke-linecap="round" stroke-linejoin="round"/>
</svg>
