<svg width="40" height="40" viewBox="0 0 40 40" fill="none" xmlns="http://www.w3.org/2000/svg">
<rect width="40" height="40" rx="20" fill="#EDFAFF"/>
<path d="M21.6667 11.6667V15C21.6667 15.442 21.8423 15.866 22.1549 16.1785C22.4675 16.4911 22.8914 16.6667 23.3334 16.6667H26.6667" stroke="#00468C" stroke-width="2" stroke-linecap="round" stroke-linejoin="round"/>
<path d="M23.3333 28.3333H24.9999C25.4419 28.3333 25.8659 28.1577 26.1784 27.8452C26.491 27.5326 26.6666 27.1087 26.6666 26.6667V15.8333L22.4999 11.6667H14.9999C14.5579 11.6667 14.134 11.8423 13.8214 12.1548C13.5088 12.4674 13.3333 12.8913 13.3333 13.3333V16.25" stroke="#00468C" stroke-width="2" stroke-linecap="round" stroke-linejoin="round"/>
<path d="M13.3475 19.5933C12.8378 20.0457 12.4259 20.5974 12.1372 21.2147C11.8485 21.8319 11.689 22.5017 11.6685 23.1829C11.648 23.864 11.767 24.5421 12.0181 25.1756C12.2693 25.8091 12.6472 26.3846 13.1288 26.8667C13.6105 27.3488 14.1855 27.7274 14.8188 27.9792C15.452 28.231 16.13 28.3507 16.8112 28.331C17.4923 28.3112 18.1623 28.1524 18.7798 27.8644C19.3974 27.5763 19.9496 27.165 20.4025 26.6558" stroke="#00468C" stroke-width="2" stroke-linecap="round" stroke-linejoin="round"/>
<path d="M17.5001 23.3333C17.2791 23.3333 17.0671 23.2455 16.9108 23.0893C16.7545 22.933 16.6667 22.721 16.6667 22.5V19.1667C16.6667 18.7067 17.0417 18.3267 17.4959 18.4025C18.5212 18.5749 19.4672 19.0626 20.2023 19.7977C20.9375 20.5329 21.4252 21.4789 21.5976 22.5042C21.6734 22.9575 21.2934 23.3333 20.8334 23.3333H17.5001Z" stroke="#00468C" stroke-width="2" stroke-linecap="round" stroke-linejoin="round"/>
</svg>
