<svg width="40" height="40" viewBox="0 0 40 40" fill="none" xmlns="http://www.w3.org/2000/svg">
<rect width="40" height="40" rx="20" fill="#EDFAFF"/>
<path d="M21.6667 11.6667V15C21.6667 15.442 21.8423 15.866 22.1549 16.1785C22.4675 16.4911 22.8914 16.6667 23.3334 16.6667H26.6667" stroke="#00468C" stroke-width="2" stroke-linecap="round" stroke-linejoin="round"/>
<path d="M22.5 25C22.5 24.337 22.2366 23.7011 21.7678 23.2322C21.2989 22.7634 20.663 22.5 20 22.5C19.337 22.5 18.7011 22.7634 18.2322 23.2322C17.7634 23.7011 17.5 24.337 17.5 25" stroke="#00468C" stroke-width="2" stroke-linecap="round" stroke-linejoin="round"/>
<path d="M22.4999 11.6667H14.9999C14.5579 11.6667 14.134 11.8423 13.8214 12.1548C13.5088 12.4674 13.3333 12.8913 13.3333 13.3333V26.6667C13.3333 27.1087 13.5088 27.5326 13.8214 27.8452C14.134 28.1577 14.5579 28.3333 14.9999 28.3333H24.9999C25.4419 28.3333 25.8659 28.1577 26.1784 27.8452C26.491 27.5326 26.6666 27.1087 26.6666 26.6667V15.8333L22.4999 11.6667Z" stroke="#00468C" stroke-width="2" stroke-linecap="round" stroke-linejoin="round"/>
<path d="M19.9999 22.5C20.9204 22.5 21.6666 21.7538 21.6666 20.8333C21.6666 19.9129 20.9204 19.1667 19.9999 19.1667C19.0794 19.1667 18.3333 19.9129 18.3333 20.8333C18.3333 21.7538 19.0794 22.5 19.9999 22.5Z" stroke="#00468C" stroke-width="2" stroke-linecap="round" stroke-linejoin="round"/>
</svg>
