<svg width="93" height="40" viewBox="0 0 93 40" fill="none" xmlns="http://www.w3.org/2000/svg">
<path d="M52.1391 16.3539C52.0234 16.3855 51.8391 16.4171 51.5863 16.4487C51.3442 16.4802 51.102 16.496 50.8599 16.496C50.6177 16.496 50.4019 16.475 50.2125 16.4329C50.0334 16.4013 49.8807 16.3381 49.7545 16.2433C49.6281 16.1486 49.5333 16.017 49.4701 15.8485C49.4069 15.6801 49.3754 15.459 49.3754 15.1852V12.7215H46.343V16.3539C46.2272 16.3855 46.0429 16.4171 45.7903 16.4487C45.5482 16.4802 45.306 16.496 45.0639 16.496C44.8216 16.496 44.6059 16.475 44.4163 16.4329C44.2374 16.4013 44.0847 16.3381 43.9583 16.2433C43.832 16.1486 43.7373 16.017 43.6741 15.8485C43.6109 15.6801 43.5792 15.459 43.5792 15.1852V6.84649C43.6951 6.82544 43.8793 6.79912 44.1321 6.76753C44.3848 6.72542 44.6268 6.70436 44.8585 6.70436C45.1008 6.70436 45.3113 6.72542 45.4902 6.76753C45.6798 6.79912 45.8377 6.86229 45.964 6.95704C46.0904 7.05181 46.1851 7.18341 46.2483 7.35188C46.3115 7.52033 46.343 7.74144 46.343 8.01519V10.5421H49.3754V6.84649C49.4911 6.82544 49.6755 6.79912 49.9281 6.76753C50.1808 6.72542 50.423 6.70436 50.6545 6.70436C50.8968 6.70436 51.1074 6.72542 51.2862 6.76753C51.4758 6.79912 51.6338 6.86229 51.7602 6.95704C51.8864 7.05181 51.9811 7.18341 52.0443 7.35188C52.1075 7.52033 52.1391 7.74144 52.1391 8.01519V16.3539ZM57.254 16.6698C56.6329 16.6698 56.0539 16.5855 55.5169 16.4171C54.9905 16.2381 54.5271 15.9749 54.1271 15.6274C53.7375 15.28 53.4268 14.843 53.1953 14.3166C52.9742 13.7902 52.8637 13.1742 52.8637 12.4688C52.8637 11.7739 52.9742 11.179 53.1953 10.6842C53.4268 10.1788 53.7269 9.76821 54.0954 9.45235C54.4641 9.12596 54.8852 8.88906 55.359 8.74166C55.8327 8.58372 56.3171 8.50476 56.8119 8.50476C57.3699 8.50476 57.8753 8.58899 58.328 8.75746C58.7913 8.92591 59.1862 9.15754 59.5126 9.45235C59.8494 9.74715 60.1074 10.0999 60.2864 10.5105C60.4758 10.9211 60.5706 11.3686 60.5706 11.8529C60.5706 12.2109 60.4707 12.4846 60.2707 12.6741C60.0705 12.8636 59.7915 12.9847 59.4336 13.0374L55.5326 13.6217C55.6485 13.9692 55.8854 14.2324 56.2433 14.4114C56.6014 14.5798 57.012 14.6641 57.4752 14.6641C57.9068 14.6641 58.3122 14.6114 58.6913 14.5061C59.0809 14.3903 59.3967 14.2587 59.6388 14.1113C59.8073 14.2166 59.9494 14.364 60.0653 14.5535C60.1811 14.743 60.239 14.943 60.239 15.1536C60.239 15.6274 60.0178 15.9801 59.5758 16.2118C59.2388 16.3908 58.8597 16.5118 58.4386 16.575C58.0175 16.6382 57.6227 16.6698 57.254 16.6698ZM56.8119 10.4631C56.5591 10.4631 56.3382 10.5052 56.1486 10.5894C55.9695 10.6737 55.8222 10.7842 55.7063 10.9211C55.5907 11.0474 55.5011 11.1948 55.4379 11.3633C55.3853 11.5212 55.3536 11.6844 55.3432 11.8529L58.0438 11.4107C58.0121 11.2001 57.8963 10.9895 57.6963 10.779C57.4963 10.5684 57.2014 10.4631 56.8119 10.4631ZM65.1321 16.6698C64.511 16.6698 63.9318 16.5855 63.3948 16.4171C62.8684 16.2381 62.4052 15.9749 62.005 15.6274C61.6156 15.28 61.3049 14.843 61.0732 14.3166C60.8521 13.7902 60.7416 13.1742 60.7416 12.4688C60.7416 11.7739 60.8521 11.179 61.0732 10.6842C61.3049 10.1788 61.605 9.76821 61.9735 9.45235C62.342 9.12596 62.7631 8.88906 63.2369 8.74166C63.7108 8.58372 64.195 8.50476 64.6899 8.50476C65.248 8.50476 65.7533 8.58899 66.2061 8.75746C66.6693 8.92591 67.0641 9.15754 67.3905 9.45235C67.7274 9.74715 67.9855 10.0999 68.1643 10.5105C68.3539 10.9211 68.4487 11.3686 68.4487 11.8529C68.4487 12.2109 68.3486 12.4846 68.1486 12.6741C67.9486 12.8636 67.6696 12.9847 67.3115 13.0374L63.4107 13.6217C63.5264 13.9692 63.7635 14.2324 64.1214 14.4114C64.4793 14.5798 64.8899 14.6641 65.3533 14.6641C65.7849 14.6641 66.1903 14.6114 66.5694 14.5061C66.9588 14.3903 67.2746 14.2587 67.5169 14.1113C67.6854 14.2166 67.8275 14.364 67.9432 14.5535C68.0591 14.743 68.1171 14.943 68.1171 15.1536C68.1171 15.6274 67.8959 15.9801 67.4537 16.2118C67.1167 16.3908 66.7377 16.5118 66.3165 16.575C65.8954 16.6382 65.5006 16.6698 65.1321 16.6698ZM64.6899 10.4631C64.4372 10.4631 64.2161 10.5052 64.0267 10.5894C63.8476 10.6737 63.7003 10.7842 63.5844 10.9211C63.4686 11.0474 63.379 11.1948 63.3158 11.3633C63.2632 11.5212 63.2317 11.6844 63.2211 11.8529L65.9217 11.4107C65.8902 11.2001 65.7744 10.9895 65.5744 10.779C65.3742 10.5684 65.0795 10.4631 64.6899 10.4631ZM72.6942 8.50476C73.2944 8.50476 73.8365 8.58372 74.3209 8.74166C74.8158 8.88906 75.2317 9.08385 75.5687 9.32599C75.7792 9.4734 75.9423 9.63659 76.0582 9.81559C76.1846 9.99458 76.2476 10.2262 76.2476 10.5105V16.038C76.2476 16.5961 76.1423 17.0751 75.9318 17.4752C75.7212 17.8859 75.4317 18.2227 75.0632 18.4859C74.7053 18.7597 74.2788 18.9598 73.7839 19.0861C73.2997 19.2125 72.7785 19.2757 72.2204 19.2757C71.2623 19.2757 70.5096 19.1441 69.9621 18.8809C69.4146 18.6281 69.1408 18.2123 69.1408 17.6331C69.1408 17.391 69.1882 17.1751 69.2829 16.9856C69.3882 16.8066 69.5041 16.6698 69.6305 16.575C69.9358 16.7435 70.2779 16.8856 70.657 17.0014C71.0466 17.1172 71.4466 17.1751 71.8571 17.1751C72.4258 17.1751 72.8784 17.0804 73.2154 16.8909C73.5524 16.7014 73.7209 16.396 73.7209 15.9749V15.7222C73.2892 15.9117 72.7628 16.0065 72.1415 16.0065C71.6677 16.0065 71.2151 15.938 70.7834 15.8011C70.3621 15.6538 69.9884 15.4326 69.662 15.1378C69.3462 14.8325 69.0881 14.4429 68.8881 13.9692C68.6987 13.4954 68.6038 12.9321 68.6038 12.2793C68.6038 11.637 68.7039 11.079 68.9039 10.6052C69.1145 10.1314 69.3988 9.74189 69.7567 9.43656C70.1252 9.12069 70.5569 8.88906 71.0518 8.74166C71.5572 8.58372 72.1046 8.50476 72.6942 8.50476ZM73.6734 10.7948C73.5997 10.7526 73.4892 10.7105 73.3418 10.6684C73.2049 10.6263 73.0312 10.6052 72.8206 10.6052C72.3048 10.6052 71.9152 10.7526 71.652 11.0474C71.3993 11.3317 71.2729 11.7423 71.2729 12.2793C71.2729 12.89 71.3993 13.3322 71.652 13.6059C71.9152 13.8691 72.2468 14.0007 72.6469 14.0007C73.0786 14.0007 73.4208 13.9007 73.6734 13.7007V10.7948ZM81.1811 16.6698C80.56 16.6698 79.981 16.5855 79.444 16.4171C78.9176 16.2381 78.4542 15.9749 78.0542 15.6274C77.6646 15.28 77.3539 14.843 77.1224 14.3166C76.9013 13.7902 76.7907 13.1742 76.7907 12.4688C76.7907 11.7739 76.9013 11.179 77.1224 10.6842C77.3539 10.1788 77.654 9.76821 78.0225 9.45235C78.391 9.12596 78.8123 8.88906 79.2861 8.74166C79.7598 8.58372 80.2442 8.50476 80.7389 8.50476C81.297 8.50476 81.8024 8.58899 82.2551 8.75746C82.7183 8.92591 83.1133 9.15754 83.4397 9.45235C83.7765 9.74715 84.0345 10.0999 84.2135 10.5105C84.403 10.9211 84.4977 11.3686 84.4977 11.8529C84.4977 12.2109 84.3978 12.4846 84.1976 12.6741C83.9976 12.8636 83.7186 12.9847 83.3605 13.0374L79.4597 13.6217C79.5756 13.9692 79.8125 14.2324 80.1704 14.4114C80.5283 14.5798 80.9391 14.6641 81.4023 14.6641C81.8339 14.6641 82.2393 14.6114 82.6184 14.5061C83.008 14.3903 83.3238 14.2587 83.5659 14.1113C83.7344 14.2166 83.8765 14.364 83.9924 14.5535C84.1082 14.743 84.1661 14.943 84.1661 15.1536C84.1661 15.6274 83.9449 15.9801 83.5027 16.2118C83.1659 16.3908 82.7868 16.5118 82.3657 16.575C81.9444 16.6382 81.5496 16.6698 81.1811 16.6698ZM80.7389 10.4631C80.4862 10.4631 80.2651 10.5052 80.0757 10.5894C79.8966 10.6737 79.7493 10.7842 79.6334 10.9211C79.5176 11.0474 79.4281 11.1948 79.365 11.3633C79.3124 11.5212 79.2807 11.6844 79.2701 11.8529L81.9707 11.4107C81.9392 11.2001 81.8234 10.9895 81.6234 10.779C81.4234 10.5684 81.1285 10.4631 80.7389 10.4631ZM91.4755 14.1271C91.4755 14.9273 91.1754 15.5537 90.5752 16.0065C89.9753 16.4592 89.0907 16.6856 87.9221 16.6856C87.4798 16.6856 87.0693 16.654 86.6902 16.5908C86.3112 16.5276 85.9848 16.4329 85.711 16.3065C85.4478 16.1696 85.2372 16.0012 85.0793 15.8011C84.932 15.6011 84.8582 15.3642 84.8582 15.0905C84.8582 14.8378 84.9108 14.6272 85.0161 14.4587C85.1214 14.2797 85.2478 14.1323 85.3952 14.0165C85.7006 14.185 86.048 14.3377 86.4376 14.4745C86.8376 14.6009 87.2956 14.6641 87.8116 14.6641C88.1378 14.6641 88.3853 14.6167 88.5538 14.5219C88.7328 14.4272 88.8223 14.3008 88.8223 14.1429C88.8223 13.9955 88.7591 13.8797 88.6327 13.7954C88.5065 13.7112 88.2958 13.6428 88.001 13.5901L87.5273 13.4954C86.6113 13.3164 85.9269 13.0374 85.4741 12.6583C85.032 12.2688 84.8109 11.716 84.8109 11.0001C84.8109 10.6105 84.8951 10.2578 85.0636 9.94192C85.232 9.62606 85.4689 9.36286 85.7742 9.15228C86.0795 8.9417 86.4428 8.77851 86.8639 8.66269C87.2956 8.54688 87.7694 8.48897 88.2854 8.48897C88.6748 8.48897 89.0381 8.52056 89.3751 8.58372C89.7224 8.63636 90.0225 8.72061 90.2752 8.83642C90.528 8.95223 90.728 9.1049 90.8753 9.29441C91.0229 9.4734 91.0965 9.68925 91.0965 9.94192C91.0965 10.1841 91.0492 10.3947 90.9543 10.5736C90.8701 10.7421 90.7595 10.8842 90.6227 11.0001C90.5385 10.9474 90.4121 10.8948 90.2436 10.8421C90.0752 10.779 89.8909 10.7263 89.6909 10.6842C89.4909 10.6316 89.2856 10.5894 89.075 10.5579C88.875 10.5263 88.6907 10.5105 88.5223 10.5105C88.1747 10.5105 87.9063 10.5526 87.7167 10.6368C87.5273 10.7105 87.4326 10.8316 87.4326 11.0001C87.4326 11.1159 87.4852 11.2106 87.5905 11.2843C87.6958 11.358 87.8958 11.4265 88.1905 11.4896L88.6802 11.6002C89.6909 11.8318 90.4069 12.153 90.8281 12.5636C91.2597 12.9637 91.4755 13.4848 91.4755 14.1271Z" fill="#172B48"/>
<path d="M48.4594 24.2471C47.6487 24.2471 47.0275 24.4945 46.5959 24.9893C46.1642 25.4842 45.9482 26.1844 45.9482 27.0899C45.9482 28.0059 46.1851 28.7112 46.6589 29.2061C47.1432 29.701 47.7908 29.9484 48.6016 29.9484C49.0333 29.9484 49.3964 29.8904 49.6913 29.7745C49.9966 29.6589 50.2861 29.5273 50.5598 29.3797C50.7389 29.5273 50.8757 29.7061 50.9704 29.9167C51.0757 30.1169 51.1283 30.3538 51.1283 30.6275C51.1283 31.059 50.8862 31.4277 50.4019 31.733C49.9282 32.0277 49.2016 32.1752 48.2225 32.1752C47.5171 32.1752 46.8537 32.0752 46.2326 31.8752C45.6114 31.675 45.0691 31.3697 44.6059 30.9591C44.1425 30.538 43.774 30.0116 43.5003 29.3797C43.2371 28.7375 43.1055 27.9742 43.1055 27.0899C43.1055 26.2686 43.2319 25.5474 43.4845 24.9262C43.7477 24.2944 44.1004 23.7628 44.5427 23.3311C44.9955 22.8994 45.5219 22.573 46.1219 22.3519C46.7221 22.1307 47.3643 22.0203 48.0487 22.0203C49.0173 22.0203 49.7649 22.1782 50.2914 22.494C50.8282 22.8099 51.0968 23.2152 51.0968 23.7101C51.0968 23.9839 51.0284 24.2208 50.8914 24.4208C50.7546 24.6208 50.5967 24.7787 50.4177 24.8945C50.1439 24.7157 49.8492 24.5629 49.5333 24.4365C49.2279 24.3103 48.87 24.2471 48.4594 24.2471ZM54.8916 30.1853C55.0707 30.1853 55.2655 30.1695 55.476 30.1378C55.6972 30.0958 55.8603 30.0431 55.9656 29.9799V28.7165L54.8286 28.8113C54.5337 28.8324 54.2916 28.8954 54.102 29.0007C53.9126 29.106 53.8178 29.2641 53.8178 29.4746C53.8178 29.6852 53.8968 29.8589 54.0547 29.9957C54.223 30.1221 54.5022 30.1853 54.8916 30.1853ZM54.7654 23.9785C55.3339 23.9785 55.8499 24.0365 56.3131 24.1524C56.7869 24.2681 57.187 24.4471 57.5133 24.6893C57.8502 24.9209 58.1082 25.221 58.2873 25.5894C58.4662 25.9475 58.5557 26.3739 58.5557 26.8687V30.4064C58.5557 30.6802 58.4767 30.9065 58.3188 31.0854C58.1714 31.2539 57.9924 31.4014 57.7818 31.5276C57.0975 31.9384 56.134 32.1435 54.8916 32.1435C54.3337 32.1435 53.8282 32.0909 53.3756 31.9856C52.9333 31.8803 52.5491 31.7224 52.2227 31.5119C51.9069 31.3013 51.6594 31.0327 51.4804 30.7065C51.3119 30.3801 51.2277 30.001 51.2277 29.5694C51.2277 28.8428 51.4435 28.2848 51.8752 27.8952C52.3069 27.5056 52.9754 27.2635 53.8809 27.1688L55.9498 26.9477V26.8371C55.9498 26.5318 55.813 26.316 55.5392 26.1896C55.276 26.0528 54.8916 25.9842 54.3863 25.9842C53.9862 25.9842 53.5967 26.0265 53.2177 26.1107C52.8386 26.1948 52.4965 26.3001 52.191 26.4265C52.0542 26.3318 51.9384 26.1896 51.8436 26.0002C51.7489 25.8 51.7015 25.5948 51.7015 25.3842C51.7015 25.1105 51.7647 24.8945 51.8911 24.7366C52.0279 24.5681 52.2333 24.426 52.507 24.3103C52.8123 24.1945 53.1702 24.1101 53.5808 24.0575C54.0021 24.0048 54.3969 23.9785 54.7654 23.9785ZM62.0925 31.8752C61.9872 31.9067 61.8187 31.9384 61.587 31.9699C61.3659 32.0014 61.1344 32.0173 60.8921 32.0173C60.6606 32.0173 60.4501 32.0014 60.2604 31.9699C60.0814 31.9384 59.9288 31.8752 59.8024 31.7803C59.6762 31.6855 59.5761 31.5593 59.5024 31.4014C59.4391 31.2329 59.4076 31.017 59.4076 30.7538V26.0159C59.4076 25.7737 59.4497 25.5685 59.534 25.4C59.6288 25.221 59.7604 25.063 59.9288 24.9262C60.0973 24.7893 60.3025 24.6682 60.5448 24.5629C60.7974 24.4471 61.066 24.347 61.3501 24.2629C61.6345 24.1787 61.9292 24.1155 62.2346 24.0734C62.5399 24.0208 62.8452 23.9945 63.1507 23.9945C63.6559 23.9945 64.0561 24.0944 64.3508 24.2944C64.6457 24.484 64.7931 24.7998 64.7931 25.2421C64.7931 25.3894 64.772 25.5368 64.7299 25.6842C64.6878 25.8211 64.6352 25.9475 64.572 26.0632C64.3508 26.0632 64.1245 26.0738 63.8928 26.0949C63.6613 26.1158 63.4348 26.1475 63.2137 26.1896C62.9927 26.2317 62.782 26.2791 62.582 26.3318C62.3926 26.3739 62.2293 26.4265 62.0925 26.4897V31.8752ZM68.8767 32.1435C68.2556 32.1435 67.6765 32.0594 67.1396 31.8909C66.6132 31.7119 66.1498 31.4487 65.7498 31.1013C65.3602 30.7538 65.0495 30.3169 64.818 29.7905C64.5969 29.2641 64.4864 28.6481 64.4864 27.9427C64.4864 27.2478 64.5969 26.6528 64.818 26.1581C65.0495 25.6526 65.3496 25.2421 65.7181 24.9262C66.0868 24.5998 66.5079 24.3629 66.9817 24.2154C67.4554 24.0575 67.9398 23.9785 68.4346 23.9785C68.9926 23.9785 69.498 24.0629 69.9507 24.2313C70.414 24.3997 70.8088 24.6313 71.1353 24.9262C71.472 25.221 71.7301 25.5737 71.9091 25.9842C72.0985 26.395 72.1933 26.8424 72.1933 27.3268C72.1933 27.6847 72.0933 27.9584 71.8933 28.1479C71.6932 28.3375 71.4142 28.4585 71.0563 28.5112L67.1553 29.0956C67.2712 29.4429 67.5081 29.7061 67.866 29.8852C68.2241 30.0537 68.6346 30.1378 69.0978 30.1378C69.5295 30.1378 69.9349 30.0852 70.3139 29.9799C70.7036 29.8641 71.0194 29.7325 71.2615 29.5851C71.43 29.6904 71.5721 29.8378 71.688 30.0274C71.8038 30.2168 71.8617 30.4168 71.8617 30.6275C71.8617 31.1013 71.6405 31.454 71.1985 31.6855C70.8615 31.8646 70.4824 31.9856 70.0613 32.0488C69.6402 32.112 69.2454 32.1435 68.8767 32.1435ZM68.4346 25.937C68.1818 25.937 67.9609 25.979 67.7713 26.0632C67.5922 26.1475 67.4449 26.258 67.329 26.395C67.2133 26.5212 67.1238 26.6687 67.0606 26.8371C67.008 26.995 66.9763 27.1583 66.9659 27.3268L69.6665 26.8845C69.6348 26.6739 69.519 26.4634 69.319 26.2528C69.119 26.0423 68.8241 25.937 68.4346 25.937Z" fill="#172B48"/>
<mask id="mask0_23177_2061" style="mask-type:luminance" maskUnits="userSpaceOnUse" x="0" y="0" width="38" height="40">
<path d="M-7.62939e-06 0H37.4855V40H-7.62939e-06V0Z" fill="white"/>
</mask>
<g mask="url(#mask0_23177_2061)">
<path d="M6.96324 0C10.793 0 13.8878 3.09477 13.8878 6.92457V14.0425C15.706 14.3907 17.0987 15.1257 19.6518 15.2031C22.7853 15.3578 24.3327 14.3907 25.9188 13.9652V8.12379C25.9188 4.91295 28.5107 2.32109 31.7214 2.32109C34.8935 2.32109 37.4856 4.91295 37.4856 8.12379V30.3674C37.4856 33.5784 34.8935 36.1702 31.6828 36.1702C28.4719 36.1702 25.88 33.5784 25.88 30.3674V28.2784C29.5552 27.3113 32.3017 25.5706 33.8492 24.3714C34.9323 23.5203 35.1644 21.9342 34.3133 20.8511C34.2747 20.8123 34.2747 20.8123 34.2361 20.7737C33.385 19.7292 31.8374 19.5745 30.7931 20.3868C28.9749 21.7796 25.1064 24.1006 19.8066 23.9846C14.8936 23.8684 11.3346 21.6634 9.63249 20.3868C8.54932 19.5358 6.96326 19.7292 6.11219 20.8511C5.60929 21.5087 5.49323 22.321 5.68665 23.0561C5.84139 23.559 6.11219 24.0232 6.5764 24.3714C8.00774 25.4545 10.4836 27.0793 13.8491 28.085V33.0367C13.8491 36.8665 10.7544 39.9614 6.92456 39.9614C3.09477 39.9614 0 36.8665 0 33.0367V6.92457C0 3.09477 3.13346 0 6.96324 0Z" fill="url(#paint0_linear_23177_2061)"/>
</g>
<defs>
<linearGradient id="paint0_linear_23177_2061" x1="18.7427" y1="-2.61588e-10" x2="18.5685" y2="59.3811" gradientUnits="userSpaceOnUse">
<stop stop-color="#0080FF"/>
<stop offset="1" stop-color="#63F17B"/>
</linearGradient>
</defs>
</svg>
