<svg width="186" height="80" viewBox="0 0 186 80" fill="none" xmlns="http://www.w3.org/2000/svg">
<path d="M104.278 32.7078C104.047 32.7709 103.678 32.8341 103.173 32.8973C102.688 32.9604 102.204 32.992 101.72 32.992C101.235 32.992 100.804 32.9499 100.425 32.8657C100.067 32.8025 99.7614 32.6762 99.5089 32.4866C99.2561 32.2971 99.0667 32.0339 98.9403 31.697C98.8139 31.3601 98.7508 30.9179 98.7508 30.3704V25.443H92.6861V32.7078C92.4544 32.7709 92.0859 32.8341 91.5806 32.8973C91.0965 32.9604 90.612 32.992 90.1278 32.992C89.6433 32.992 89.2118 32.9499 88.8326 32.8657C88.4748 32.8025 88.1694 32.6762 87.9165 32.4866C87.6641 32.2971 87.4746 32.0339 87.3482 31.697C87.2218 31.3601 87.1584 30.9179 87.1584 30.3704V13.693C87.3901 13.6508 87.7586 13.5982 88.2643 13.535C88.7695 13.4508 89.2537 13.4087 89.7171 13.4087C90.2016 13.4087 90.6227 13.4508 90.9804 13.535C91.3597 13.5982 91.6755 13.7245 91.928 13.914C92.1808 14.1036 92.3702 14.3668 92.4966 14.7037C92.623 15.0406 92.6861 15.4828 92.6861 16.0303V21.0841H98.7508V13.693C98.9822 13.6508 99.351 13.5982 99.8563 13.535C100.362 13.4508 100.846 13.4087 101.309 13.4087C101.794 13.4087 102.215 13.4508 102.572 13.535C102.952 13.5982 103.268 13.7245 103.52 13.914C103.773 14.1036 103.962 14.3668 104.089 14.7037C104.215 15.0406 104.278 15.4828 104.278 16.0303V32.7078ZM114.508 33.3395C113.266 33.3395 112.108 33.171 111.034 32.8341C109.981 32.4761 109.054 31.9497 108.254 31.2548C107.475 30.5599 106.854 29.686 106.391 28.6332C105.948 27.5803 105.727 26.3484 105.727 24.9376C105.727 23.5478 105.948 22.3581 106.391 21.3684C106.854 20.3576 107.454 19.5364 108.191 18.9047C108.928 18.2519 109.77 17.7781 110.718 17.4833C111.665 17.1674 112.634 17.0095 113.624 17.0095C114.74 17.0095 115.751 17.1779 116.656 17.5149C117.583 17.8518 118.372 18.315 119.025 18.9047C119.699 19.4943 120.215 20.1997 120.573 21.0209C120.952 21.8421 121.141 22.7371 121.141 23.7057C121.141 24.4217 120.941 24.9692 120.541 25.3482C120.141 25.7272 119.583 25.9694 118.867 26.0747L111.065 27.2434C111.297 27.9383 111.771 28.4647 112.487 28.8227C113.203 29.1596 114.024 29.3281 114.95 29.3281C115.814 29.3281 116.624 29.2228 117.383 29.0122C118.162 28.7806 118.793 28.5173 119.278 28.2225C119.615 28.4331 119.899 28.7279 120.131 29.1069C120.362 29.486 120.478 29.8861 120.478 30.3072C120.478 31.2548 120.036 31.9602 119.152 32.4235C118.478 32.7815 117.719 33.0236 116.877 33.15C116.035 33.2763 115.245 33.3395 114.508 33.3395ZM113.624 20.9262C113.118 20.9262 112.676 21.0104 112.297 21.1788C111.939 21.3473 111.644 21.5684 111.413 21.8421C111.181 22.0949 111.002 22.3896 110.876 22.7266C110.771 23.0424 110.707 23.3688 110.686 23.7057L116.088 22.8213C116.024 22.4002 115.793 21.979 115.393 21.5579C114.993 21.1367 114.403 20.9262 113.624 20.9262ZM130.264 33.3395C129.022 33.3395 127.864 33.171 126.79 32.8341C125.737 32.4761 124.81 31.9497 124.01 31.2548C123.231 30.5599 122.61 29.686 122.146 28.6332C121.704 27.5803 121.483 26.3484 121.483 24.9376C121.483 23.5478 121.704 22.3581 122.146 21.3684C122.61 20.3576 123.21 19.5364 123.947 18.9047C124.684 18.2519 125.526 17.7781 126.474 17.4833C127.422 17.1674 128.39 17.0095 129.38 17.0095C130.496 17.0095 131.507 17.1779 132.412 17.5149C133.339 17.8518 134.128 18.315 134.781 18.9047C135.455 19.4943 135.971 20.1997 136.329 21.0209C136.708 21.8421 136.897 22.7371 136.897 23.7057C136.897 24.4217 136.697 24.9692 136.297 25.3482C135.897 25.7272 135.339 25.9694 134.623 26.0747L126.821 27.2434C127.053 27.9383 127.527 28.4647 128.243 28.8227C128.959 29.1596 129.78 29.3281 130.707 29.3281C131.57 29.3281 132.381 29.2228 133.139 29.0122C133.918 28.7806 134.549 28.5173 135.034 28.2225C135.371 28.4331 135.655 28.7279 135.886 29.1069C136.118 29.486 136.234 29.8861 136.234 30.3072C136.234 31.2548 135.792 31.9602 134.907 32.4235C134.233 32.7815 133.475 33.0236 132.633 33.15C131.791 33.2763 131.001 33.3395 130.264 33.3395ZM129.38 20.9262C128.874 20.9262 128.432 21.0104 128.053 21.1788C127.695 21.3473 127.401 21.5684 127.169 21.8421C126.937 22.0949 126.758 22.3896 126.632 22.7266C126.526 23.0424 126.463 23.3688 126.442 23.7057L131.843 22.8213C131.78 22.4002 131.549 21.979 131.149 21.5579C130.748 21.1367 130.159 20.9262 129.38 20.9262ZM145.388 17.0095C146.589 17.0095 147.673 17.1674 148.642 17.4833C149.632 17.7781 150.463 18.1677 151.137 18.6519C151.558 18.9468 151.885 19.2731 152.116 19.6311C152.369 19.9891 152.495 20.4524 152.495 21.0209V32.076C152.495 33.1921 152.285 34.1502 151.864 34.9503C151.442 35.7717 150.863 36.4453 150.126 36.9717C149.411 37.5193 148.558 37.9196 147.568 38.1721C146.599 38.4249 145.557 38.5513 144.441 38.5513C142.525 38.5513 141.019 38.2881 139.924 37.7617C138.829 37.2561 138.282 36.4246 138.282 35.2661C138.282 34.782 138.376 34.3502 138.566 33.9712C138.776 33.6132 139.008 33.3395 139.261 33.15C139.872 33.4869 140.556 33.7712 141.314 34.0028C142.093 34.2344 142.893 34.3502 143.714 34.3502C144.852 34.3502 145.757 34.1607 146.431 33.7817C147.105 33.4027 147.442 32.792 147.442 31.9497V31.4443C146.578 31.8233 145.526 32.0129 144.283 32.0129C143.335 32.0129 142.43 31.876 141.567 31.6023C140.724 31.3075 139.977 30.8652 139.324 30.2756C138.692 29.665 138.176 28.8859 137.776 27.9383C137.397 26.9907 137.208 25.8641 137.208 24.5585C137.208 23.274 137.408 22.158 137.808 21.2104C138.229 20.2629 138.798 19.4837 139.513 18.8731C140.25 18.2413 141.114 17.7781 142.104 17.4833C143.114 17.1674 144.209 17.0095 145.388 17.0095ZM147.347 21.5895C147.199 21.5052 146.978 21.421 146.684 21.3368C146.41 21.2525 146.062 21.2104 145.641 21.2104C144.61 21.2104 143.83 21.5052 143.304 22.0949C142.799 22.6634 142.546 23.4846 142.546 24.5585C142.546 25.7799 142.799 26.6643 143.304 27.2118C143.83 27.7382 144.494 28.0015 145.294 28.0015C146.157 28.0015 146.842 27.8014 147.347 27.4013V21.5895ZM162.362 33.3395C161.12 33.3395 159.962 33.171 158.888 32.8341C157.835 32.4761 156.908 31.9497 156.108 31.2548C155.329 30.5599 154.708 29.686 154.245 28.6332C153.803 27.5803 153.581 26.3484 153.581 24.9376C153.581 23.5478 153.803 22.3581 154.245 21.3684C154.708 20.3576 155.308 19.5364 156.045 18.9047C156.782 18.2519 157.625 17.7781 158.572 17.4833C159.52 17.1674 160.488 17.0095 161.478 17.0095C162.594 17.0095 163.605 17.1779 164.51 17.5149C165.437 17.8518 166.227 18.315 166.879 18.9047C167.553 19.4943 168.069 20.1997 168.427 21.0209C168.806 21.8421 168.995 22.7371 168.995 23.7057C168.995 24.4217 168.796 24.9692 168.395 25.3482C167.995 25.7272 167.437 25.9694 166.721 26.0747L158.919 27.2434C159.151 27.9383 159.625 28.4647 160.341 28.8227C161.057 29.1596 161.878 29.3281 162.805 29.3281C163.668 29.3281 164.479 29.2228 165.237 29.0122C166.016 28.7806 166.648 28.5173 167.132 28.2225C167.469 28.4331 167.753 28.7279 167.985 29.1069C168.216 29.486 168.332 29.8861 168.332 30.3072C168.332 31.2548 167.89 31.9602 167.005 32.4235C166.332 32.7815 165.574 33.0236 164.731 33.15C163.889 33.2763 163.099 33.3395 162.362 33.3395ZM161.478 20.9262C160.972 20.9262 160.53 21.0104 160.151 21.1788C159.793 21.3473 159.499 21.5684 159.267 21.8421C159.035 22.0949 158.856 22.3896 158.73 22.7266C158.625 23.0424 158.561 23.3688 158.54 23.7057L163.941 22.8213C163.878 22.4002 163.647 21.979 163.247 21.5579C162.847 21.1367 162.257 20.9262 161.478 20.9262ZM182.951 28.2541C182.951 29.8545 182.351 31.1074 181.15 32.0129C179.951 32.9183 178.181 33.3711 175.844 33.3711C174.96 33.3711 174.139 33.3079 173.38 33.1815C172.622 33.0552 171.97 32.8657 171.422 32.613C170.896 32.3393 170.474 32.0024 170.159 31.6023C169.864 31.2021 169.716 30.7284 169.716 30.1809C169.716 29.6755 169.822 29.2544 170.032 28.9174C170.243 28.5594 170.496 28.2647 170.79 28.033C171.401 28.3699 172.096 28.6753 172.875 28.949C173.675 29.2017 174.591 29.3281 175.623 29.3281C176.276 29.3281 176.771 29.2333 177.108 29.0438C177.466 28.8543 177.645 28.6016 177.645 28.2857C177.645 27.9909 177.518 27.7593 177.265 27.5908C177.013 27.4224 176.592 27.2855 176.002 27.1802L175.055 26.9907C173.223 26.6327 171.854 26.0747 170.948 25.3166C170.064 24.5375 169.622 23.432 169.622 22.0001C169.622 21.221 169.79 20.5155 170.127 19.8838C170.464 19.2521 170.938 18.7257 171.548 18.3045C172.159 17.8834 172.886 17.557 173.728 17.3253C174.591 17.0937 175.539 16.9779 176.571 16.9779C177.35 16.9779 178.076 17.0411 178.75 17.1674C179.445 17.2727 180.045 17.4412 180.55 17.6728C181.056 17.9044 181.456 18.2098 181.751 18.5888C182.046 18.9468 182.193 19.3785 182.193 19.8838C182.193 20.3681 182.098 20.7893 181.909 21.1473C181.74 21.4842 181.519 21.7684 181.245 22.0001C181.077 21.8948 180.824 21.7895 180.487 21.6842C180.15 21.5579 179.782 21.4526 179.382 21.3684C178.982 21.2631 178.571 21.1788 178.15 21.1157C177.75 21.0525 177.381 21.0209 177.045 21.0209C176.349 21.0209 175.813 21.1051 175.433 21.2736C175.055 21.421 174.865 21.6632 174.865 22.0001C174.865 22.2317 174.97 22.4212 175.181 22.5686C175.392 22.7161 175.792 22.8529 176.381 22.9793L177.36 23.2003C179.382 23.6636 180.814 24.3059 181.656 25.1271C182.519 25.9273 182.951 26.9696 182.951 28.2541Z" fill="white"/>
<path d="M96.9188 48.4942C95.2973 48.4942 94.0551 48.9891 93.1917 49.9785C92.3283 50.9683 91.8965 52.3688 91.8965 54.1797C91.8965 56.0118 92.3702 57.4223 93.3178 58.4121C94.2864 59.4019 95.5817 59.8968 97.2031 59.8968C98.0665 59.8968 98.7928 59.7808 99.3825 59.5491C99.9931 59.3178 100.572 59.0546 101.12 58.7595C101.478 59.0546 101.751 59.4123 101.941 59.8334C102.151 60.2338 102.257 60.7075 102.257 61.2551C102.257 62.1181 101.772 62.8554 100.804 63.466C99.8563 64.0554 98.4031 64.3505 96.445 64.3505C95.0341 64.3505 93.7074 64.1503 92.4651 63.7503C91.2229 63.35 90.1382 62.7394 89.2118 61.9183C88.285 61.076 87.5481 60.0232 87.0005 58.7595C86.4741 57.475 86.2109 55.9484 86.2109 54.1797C86.2109 52.5372 86.4637 51.0947 86.969 49.8525C87.4954 48.5888 88.2009 47.5255 89.0854 46.6622C89.991 45.7988 91.0438 45.146 92.2438 44.7037C93.4442 44.2615 94.7287 44.0405 96.0973 44.0405C98.0347 44.0405 99.5297 44.3564 100.583 44.9881C101.656 45.6197 102.194 46.4305 102.194 47.4203C102.194 47.9678 102.057 48.4416 101.783 48.8416C101.509 49.2416 101.193 49.5574 100.835 49.7891C100.288 49.4314 99.6984 49.1259 99.0667 48.8731C98.4558 48.6206 97.7399 48.4942 96.9188 48.4942ZM109.783 60.3706C110.141 60.3706 110.531 60.3391 110.952 60.2757C111.394 60.1915 111.721 60.0862 111.931 59.9598V57.4331L109.657 57.6225C109.067 57.6648 108.583 57.7908 108.204 58.0014C107.825 58.212 107.636 58.5281 107.636 58.9493C107.636 59.3704 107.794 59.7178 108.109 59.9914C108.446 60.2442 109.004 60.3706 109.783 60.3706ZM109.531 47.9571C110.668 47.9571 111.7 48.0731 112.626 48.3048C113.574 48.5361 114.374 48.8942 115.027 49.3787C115.7 49.8417 116.216 50.4419 116.575 51.1789C116.932 51.8951 117.111 52.7477 117.111 53.7375V60.8128C117.111 61.3604 116.953 61.813 116.638 62.1707C116.343 62.5077 115.985 62.8028 115.564 63.0552C114.195 63.8767 112.268 64.2871 109.783 64.2871C108.667 64.2871 107.656 64.1818 106.751 63.9713C105.867 63.7607 105.098 63.4449 104.445 63.0237C103.814 62.6026 103.319 62.0655 102.961 61.413C102.624 60.7602 102.455 60.0021 102.455 59.1387C102.455 57.6855 102.887 56.5697 103.75 55.7905C104.614 55.0113 105.951 54.5271 107.762 54.3377L111.9 53.8954V53.6741C111.9 53.0636 111.626 52.632 111.078 52.3792C110.552 52.1056 109.783 51.9685 108.773 51.9685C107.972 51.9685 107.193 52.053 106.435 52.2213C105.677 52.3896 104.993 52.6002 104.382 52.853C104.108 52.6636 103.877 52.3792 103.687 52.0004C103.498 51.6 103.403 51.1896 103.403 50.7685C103.403 50.221 103.529 49.7891 103.782 49.4733C104.056 49.1363 104.467 48.852 105.014 48.6206C105.625 48.3889 106.34 48.2203 107.162 48.115C108.004 48.0097 108.794 47.9571 109.531 47.9571ZM124.185 63.7503C123.974 63.8133 123.637 63.8767 123.174 63.9398C122.732 64.0028 122.269 64.0346 121.784 64.0346C121.321 64.0346 120.9 64.0028 120.521 63.9398C120.163 63.8767 119.858 63.7503 119.605 63.5605C119.352 63.3711 119.152 63.1186 119.005 62.8028C118.878 62.4658 118.815 62.0339 118.815 61.5075V52.0319C118.815 51.5474 118.899 51.137 119.068 50.8C119.258 50.4419 119.521 50.1261 119.858 49.8525C120.195 49.5785 120.605 49.3365 121.09 49.1259C121.595 48.8942 122.132 48.694 122.7 48.5257C123.269 48.3574 123.858 48.231 124.469 48.1468C125.08 48.0416 125.69 47.9889 126.301 47.9889C127.312 47.9889 128.112 48.1888 128.702 48.5888C129.291 48.968 129.586 49.5997 129.586 50.4842C129.586 50.7789 129.544 51.0736 129.46 51.3683C129.376 51.6423 129.27 51.8951 129.144 52.1264C128.702 52.1264 128.249 52.1475 127.786 52.1898C127.323 52.2317 126.87 52.2951 126.427 52.3792C125.985 52.4634 125.564 52.5583 125.164 52.6636C124.785 52.7477 124.459 52.853 124.185 52.9794V63.7503ZM137.753 64.2871C136.511 64.2871 135.353 64.1188 134.279 63.7818C133.226 63.4237 132.3 62.8973 131.5 62.2026C130.72 61.5075 130.099 60.6338 129.636 59.581C129.194 58.5281 128.973 57.2963 128.973 55.8854C128.973 54.4956 129.194 53.3056 129.636 52.3162C130.099 51.3053 130.699 50.4842 131.436 49.8525C132.174 49.1997 133.016 48.7259 133.963 48.4308C134.911 48.115 135.88 47.9571 136.869 47.9571C137.985 47.9571 138.996 48.1257 139.901 48.4627C140.828 48.7993 141.618 49.2627 142.271 49.8525C142.944 50.4419 143.46 51.1474 143.818 51.9685C144.197 52.79 144.387 53.6849 144.387 54.6535C144.387 55.3694 144.187 55.9169 143.787 56.2958C143.386 56.675 142.828 56.9171 142.113 57.0223L134.311 58.1912C134.542 58.8859 135.016 59.4123 135.732 59.7704C136.448 60.1074 137.269 60.2757 138.196 60.2757C139.059 60.2757 139.87 60.1704 140.628 59.9598C141.407 59.7281 142.039 59.4649 142.523 59.1702C142.86 59.3808 143.144 59.6755 143.376 60.0547C143.608 60.4336 143.723 60.8336 143.723 61.2551C143.723 62.2026 143.281 62.9081 142.397 63.3711C141.723 63.7292 140.965 63.9713 140.123 64.0977C139.28 64.2241 138.491 64.2871 137.753 64.2871ZM136.869 51.8739C136.364 51.8739 135.922 51.9581 135.543 52.1264C135.184 52.2951 134.89 52.516 134.658 52.79C134.427 53.0424 134.248 53.3375 134.121 53.6741C134.016 53.99 133.953 54.3165 133.932 54.6535L139.333 53.769C139.27 53.3479 139.038 52.9268 138.638 52.5056C138.238 52.0845 137.648 51.8739 136.869 51.8739Z" fill="white"/>
<mask id="mask0_22581_2314" style="mask-type:luminance" maskUnits="userSpaceOnUse" x="0" y="0" width="75" height="80">
<path d="M-1.52588e-05 0H74.9711V80H-1.52588e-05V0Z" fill="white"/>
</mask>
<g mask="url(#mask0_22581_2314)">
<path d="M13.9265 0C21.5861 0 27.7756 6.18954 27.7756 13.8491V28.0851C31.412 28.7814 34.1973 30.2515 39.3036 30.4062C45.5706 30.7157 48.6654 28.7814 51.8377 27.9304V16.2476C51.8377 9.8259 57.0214 4.64218 63.4428 4.64218C69.7871 4.64218 74.9712 9.8259 74.9712 16.2476V60.7349C74.9712 67.1567 69.7871 72.3404 63.3656 72.3404C56.9438 72.3404 51.7601 67.1567 51.7601 60.7349V56.5569C59.1104 54.6227 64.6034 51.1411 67.6984 48.7429C69.8647 47.0407 70.3287 43.8684 68.6266 41.7022C68.5493 41.6246 68.5493 41.6246 68.4721 41.5474C66.7699 39.4584 63.6749 39.1491 61.5862 40.7737C57.9499 43.5591 50.2127 48.2012 39.6132 47.9692C29.7872 47.7368 22.6692 43.3268 19.265 40.7737C17.0986 39.0715 13.9265 39.4584 12.2244 41.7022C11.2186 43.0175 10.9865 44.6421 11.3733 46.1122C11.6828 47.1179 12.2244 48.0464 13.1528 48.7429C16.0155 50.9091 20.9671 54.1586 27.6983 56.17V66.0734C27.6983 73.733 21.5087 79.9228 13.8491 79.9228C6.18955 79.9228 0 73.733 0 66.0734V13.8491C0 6.18954 6.26692 0 13.9265 0Z" fill="url(#paint0_linear_22581_2314)"/>
</g>
<defs>
<linearGradient id="paint0_linear_22581_2314" x1="37.4854" y1="-5.23177e-10" x2="37.137" y2="118.762" gradientUnits="userSpaceOnUse">
<stop stop-color="#0080FF"/>
<stop offset="1" stop-color="#63F17B"/>
</linearGradient>
</defs>
</svg>
