<svg width="425" height="112" viewBox="0 0 425 112" fill="none" xmlns="http://www.w3.org/2000/svg">
<g clip-path="url(#clip0_23111_11645)">
<path d="M43.4274 32.4105C43.4274 36.8522 39.9383 40.1252 35.6563 40.1252C31.3743 40.1252 27.8851 36.8522 27.8851 32.4105C27.8851 27.9374 31.3743 24.6957 35.6563 24.6957C39.9383 24.6957 43.4274 27.9374 43.4274 32.4105ZM40.0256 32.4105C40.0256 29.6348 38.0033 27.7357 35.6563 27.7357C33.3092 27.7357 31.287 29.6348 31.287 32.4105C31.287 35.1583 33.3092 37.0852 35.6563 37.0852C38.0033 37.0852 40.0256 35.1548 40.0256 32.4105Z" fill="#EA4335"/>
<path d="M60.1921 32.4105C60.1921 36.8522 56.7029 40.1252 52.4209 40.1252C48.1389 40.1252 44.6498 36.8522 44.6498 32.4105C44.6498 27.9409 48.1389 24.6957 52.4209 24.6957C56.7029 24.6957 60.1921 27.9374 60.1921 32.4105ZM56.7902 32.4105C56.7902 29.6348 54.768 27.7357 52.4209 27.7357C50.0739 27.7357 48.0516 29.6348 48.0516 32.4105C48.0516 35.1583 50.0739 37.0852 52.4209 37.0852C54.768 37.0852 56.7902 35.1548 56.7902 32.4105Z" fill="#FBBC05"/>
<path d="M76.2583 25.1618V39.0122C76.2583 44.7096 72.8844 47.0365 68.8958 47.0365C65.1412 47.0365 62.8815 44.5357 62.0293 42.4905L64.9911 41.2626C65.5184 42.5183 66.8107 44 68.8923 44C71.4455 44 73.0276 42.4313 73.0276 39.4783V38.3687H72.9089C72.1475 39.3044 70.6806 40.1218 68.8295 40.1218C64.9561 40.1218 61.4076 36.7618 61.4076 32.4383C61.4076 28.0835 64.9561 24.6957 68.8295 24.6957C70.6771 24.6957 72.144 25.5131 72.9089 26.4209H73.0276V25.1652H76.2583V25.1618ZM73.2686 32.4383C73.2686 29.7218 71.449 27.7357 69.1333 27.7357C66.7863 27.7357 64.8199 29.7218 64.8199 32.4383C64.8199 35.127 66.7863 37.0852 69.1333 37.0852C71.449 37.0852 73.2686 35.127 73.2686 32.4383Z" fill="#4285F4"/>
<path d="M81.5846 17.0435V39.6522H78.2666V17.0435H81.5846Z" fill="#34A853"/>
<path d="M94.5143 34.9496L97.1548 36.7026C96.3026 37.9583 94.2489 40.1218 90.7004 40.1218C86.2996 40.1218 83.0131 36.7339 83.0131 32.407C83.0131 27.8192 86.3276 24.6922 90.3197 24.6922C94.3397 24.6922 96.3061 27.8783 96.9487 29.6L97.3015 30.4765L86.9458 34.7479C87.7386 36.2957 88.9715 37.0852 90.7004 37.0852C92.4327 37.0852 93.6342 36.2365 94.5143 34.9496ZM86.387 32.1739L93.3094 29.3113C92.9287 28.3479 91.7831 27.6765 90.4349 27.6765C88.7061 27.6765 86.2996 29.1965 86.387 32.1739Z" fill="#EA4335"/>
<path d="M15.3255 30.4035V27.1304H26.4007C26.509 27.7008 26.5649 28.3756 26.5649 29.1061C26.5649 31.5617 25.8908 34.5982 23.7184 36.7617C21.6053 38.953 18.9055 40.1217 15.329 40.1217C8.7 40.1217 3.12573 34.7443 3.12573 28.1426C3.12573 21.5408 8.7 16.1635 15.329 16.1635C18.9963 16.1635 21.6088 17.5965 23.5717 19.4643L21.2526 21.7739C19.845 20.4591 17.938 19.4365 15.3255 19.4365C10.4847 19.4365 6.69871 23.3217 6.69871 28.1426C6.69871 32.9635 10.4847 36.8487 15.3255 36.8487C18.4654 36.8487 20.2537 35.593 21.3993 34.4521C22.3283 33.5269 22.9395 32.2052 23.1805 30.4L15.3255 30.4035Z" fill="#4285F4"/>
</g>
<path fill-rule="evenodd" clip-rule="evenodd" d="M9.48996 58.675C9.8633 57.7775 11.1366 57.7775 11.51 58.675L13.245 62.8467L17.7483 63.2084C18.7183 63.2859 19.1116 64.4959 18.3725 65.1292L14.9416 68.0684L15.9891 72.4625C16.215 73.4092 15.1858 74.1567 14.3558 73.65L10.5 71.295L6.64413 73.65C5.81413 74.1567 4.78496 73.4083 5.0108 72.4625L6.05829 68.0684L2.62746 65.1292C1.88829 64.4959 2.28163 63.2859 3.25163 63.2084L7.75496 62.8467L9.48996 58.675Z" fill="#757575"/>
<path fill-rule="evenodd" clip-rule="evenodd" d="M29.49 58.675C29.8633 57.7775 31.1366 57.7775 31.51 58.675L33.245 62.8467L37.7483 63.2084C38.7183 63.2859 39.1116 64.4959 38.3725 65.1292L34.9416 68.0684L35.9891 72.4625C36.215 73.4092 35.1858 74.1567 34.3558 73.65L30.5 71.295L26.6441 73.65C25.8141 74.1567 24.785 73.4083 25.0108 72.4625L26.0583 68.0684L22.6275 65.1292C21.8883 64.4959 22.2816 63.2859 23.2516 63.2084L27.755 62.8467L29.49 58.675Z" fill="#757575"/>
<path fill-rule="evenodd" clip-rule="evenodd" d="M49.49 58.675C49.8633 57.7775 51.1366 57.7775 51.51 58.675L53.245 62.8467L57.7483 63.2084C58.7183 63.2859 59.1116 64.4959 58.3725 65.1292L54.9416 68.0684L55.9891 72.4625C56.215 73.4092 55.1858 74.1567 54.3558 73.65L50.5 71.295L46.6441 73.65C45.8141 74.1567 44.785 73.4083 45.0108 72.4625L46.0583 68.0684L42.6275 65.1292C41.8883 64.4959 42.2816 63.2859 43.2516 63.2084L47.755 62.8467L49.49 58.675Z" fill="#757575"/>
<path fill-rule="evenodd" clip-rule="evenodd" d="M69.49 58.675C69.8633 57.7775 71.1366 57.7775 71.51 58.675L73.245 62.8467L77.7483 63.2084C78.7183 63.2859 79.1116 64.4959 78.3725 65.1292L74.9416 68.0684L75.9891 72.4625C76.215 73.4092 75.1858 74.1567 74.3558 73.65L70.5 71.295L66.6441 73.65C65.8141 74.1567 64.785 73.4083 65.0108 72.4625L66.0583 68.0684L62.6275 65.1292C61.8883 64.4959 62.2816 63.2859 63.2516 63.2084L67.755 62.8467L69.49 58.675Z" fill="#757575"/>
<path fill-rule="evenodd" clip-rule="evenodd" d="M89.49 58.675C89.8633 57.7775 91.1366 57.7775 91.51 58.675L93.245 62.8467L97.7483 63.2084C98.7183 63.2859 99.1116 64.4959 98.3725 65.1292L94.9416 68.0684L95.9891 72.4625C96.215 73.4092 95.1858 74.1567 94.3558 73.65L90.5 71.295L86.6441 73.65C85.8141 74.1567 84.785 73.4083 85.0108 72.4625L86.0583 68.0684L82.6275 65.1292C81.8883 64.4959 82.2816 63.2859 83.2516 63.2084L87.755 62.8467L89.49 58.675Z" fill="#757575"/>
<path d="M18.06 88.746V87.78L22.974 80.976H24.5V87.64H25.9V88.746H24.5V91H23.24V88.746H18.06ZM23.296 82.306L19.53 87.64H23.296V82.306ZM27.7887 91.084C27.546 91.084 27.3407 91 27.1727 90.832C27.0047 90.664 26.9207 90.4587 26.9207 90.216C26.9207 89.9733 27.0047 89.768 27.1727 89.6C27.3407 89.432 27.546 89.348 27.7887 89.348C28.022 89.348 28.218 89.432 28.3767 89.6C28.5447 89.768 28.6287 89.9733 28.6287 90.216C28.6287 90.4587 28.5447 90.664 28.3767 90.832C28.218 91 28.022 91.084 27.7887 91.084ZM31.9601 85.736C31.4375 85.5307 31.0361 85.232 30.7561 84.84C30.4761 84.448 30.3361 83.972 30.3361 83.412C30.3361 82.908 30.4621 82.4553 30.7141 82.054C30.9661 81.6433 31.3395 81.3213 31.8341 81.088C32.3381 80.8453 32.9448 80.724 33.6541 80.724C34.3635 80.724 34.9655 80.8453 35.4601 81.088C35.9641 81.3213 36.3421 81.6433 36.5941 82.054C36.8555 82.4553 36.9861 82.908 36.9861 83.412C36.9861 83.9533 36.8415 84.4293 36.5521 84.84C36.2628 85.2413 35.8661 85.54 35.3621 85.736C35.9408 85.9133 36.3981 86.226 36.7341 86.674C37.0795 87.1127 37.2521 87.6447 37.2521 88.27C37.2521 88.8767 37.1028 89.4087 36.8041 89.866C36.5055 90.314 36.0808 90.664 35.5301 90.916C34.9888 91.1587 34.3635 91.28 33.6541 91.28C32.9448 91.28 32.3195 91.1587 31.7781 90.916C31.2461 90.664 30.8308 90.314 30.5321 89.866C30.2335 89.4087 30.0841 88.8767 30.0841 88.27C30.0841 87.6447 30.2521 87.108 30.5881 86.66C30.9241 86.212 31.3815 85.904 31.9601 85.736ZM35.7541 83.566C35.7541 82.9967 35.5675 82.558 35.1941 82.25C34.8208 81.942 34.3075 81.788 33.6541 81.788C33.0101 81.788 32.5015 81.942 32.1281 82.25C31.7548 82.558 31.5681 83.0013 31.5681 83.58C31.5681 84.1027 31.7595 84.5227 32.1421 84.84C32.5341 85.1573 33.0381 85.316 33.6541 85.316C34.2795 85.316 34.7835 85.1573 35.1661 84.84C35.5581 84.5133 35.7541 84.0887 35.7541 83.566ZM33.6541 86.296C32.9635 86.296 32.3988 86.4593 31.9601 86.786C31.5215 87.1033 31.3021 87.584 31.3021 88.228C31.3021 88.8253 31.5121 89.306 31.9321 89.67C32.3615 90.034 32.9355 90.216 33.6541 90.216C34.3728 90.216 34.9421 90.034 35.3621 89.67C35.7821 89.306 35.9921 88.8253 35.9921 88.228C35.9921 87.6027 35.7775 87.1267 35.3481 86.8C34.9188 86.464 34.3541 86.296 33.6541 86.296ZM44.1606 84.574C44.3846 84.1353 44.7019 83.7947 45.1126 83.552C45.5326 83.3093 46.0413 83.188 46.6386 83.188V84.504H46.3026C44.8746 84.504 44.1606 85.2787 44.1606 86.828V91H42.8866V83.328H44.1606V84.574ZM47.6333 87.136C47.6333 86.352 47.7919 85.666 48.1093 85.078C48.4266 84.4807 48.8606 84.0187 49.4113 83.692C49.9713 83.3653 50.5919 83.202 51.2733 83.202C51.9453 83.202 52.5286 83.3467 53.0233 83.636C53.5179 83.9253 53.8866 84.2893 54.1293 84.728V83.328H55.4173V91H54.1293V89.572C53.8773 90.02 53.4993 90.3933 52.9953 90.692C52.5006 90.9813 51.9219 91.126 51.2593 91.126C50.5779 91.126 49.9619 90.958 49.4113 90.622C48.8606 90.286 48.4266 89.8147 48.1093 89.208C47.7919 88.6013 47.6333 87.9107 47.6333 87.136ZM54.1293 87.15C54.1293 86.5713 54.0126 86.0673 53.7793 85.638C53.5459 85.2087 53.2286 84.882 52.8273 84.658C52.4353 84.4247 52.0013 84.308 51.5253 84.308C51.0493 84.308 50.6153 84.42 50.2233 84.644C49.8313 84.868 49.5186 85.1947 49.2853 85.624C49.0519 86.0533 48.9353 86.5573 48.9353 87.136C48.9353 87.724 49.0519 88.2373 49.2853 88.676C49.5186 89.1053 49.8313 89.4367 50.2233 89.67C50.6153 89.894 51.0493 90.006 51.5253 90.006C52.0013 90.006 52.4353 89.894 52.8273 89.67C53.2286 89.4367 53.5459 89.1053 53.7793 88.676C54.0126 88.2373 54.1293 87.7287 54.1293 87.15ZM59.1242 84.378V88.9C59.1242 89.2733 59.2035 89.5393 59.3622 89.698C59.5209 89.8473 59.7962 89.922 60.1882 89.922H61.1262V91H59.9782C59.2689 91 58.7369 90.8367 58.3822 90.51C58.0275 90.1833 57.8502 89.6467 57.8502 88.9V84.378H56.8562V83.328H57.8502V81.396H59.1242V83.328H61.1262V84.378H59.1242ZM63.3278 82.082C63.0851 82.082 62.8798 81.998 62.7118 81.83C62.5438 81.662 62.4598 81.4567 62.4598 81.214C62.4598 80.9713 62.5438 80.766 62.7118 80.598C62.8798 80.43 63.0851 80.346 63.3278 80.346C63.5611 80.346 63.7571 80.43 63.9158 80.598C64.0838 80.766 64.1678 80.9713 64.1678 81.214C64.1678 81.4567 64.0838 81.662 63.9158 81.83C63.7571 81.998 63.5611 82.082 63.3278 82.082ZM63.9438 83.328V91H62.6698V83.328H63.9438ZM69.8531 83.188C70.7864 83.188 71.5424 83.4727 72.1211 84.042C72.6998 84.602 72.9891 85.414 72.9891 86.478V91H71.7291V86.66C71.7291 85.8947 71.5378 85.3113 71.1551 84.91C70.7724 84.4993 70.2498 84.294 69.5871 84.294C68.9151 84.294 68.3784 84.504 67.9771 84.924C67.5851 85.344 67.3891 85.9553 67.3891 86.758V91H66.1151V83.328H67.3891V84.42C67.6411 84.028 67.9818 83.7247 68.4111 83.51C68.8498 83.2953 69.3304 83.188 69.8531 83.188ZM78.2342 83.202C78.8969 83.202 79.4755 83.3467 79.9702 83.636C80.4742 83.9253 80.8475 84.2893 81.0902 84.728V83.328H82.3782V91.168C82.3782 91.868 82.2289 92.4887 81.9302 93.03C81.6315 93.5807 81.2022 94.01 80.6422 94.318C80.0915 94.626 79.4475 94.78 78.7102 94.78C77.7022 94.78 76.8622 94.542 76.1902 94.066C75.5182 93.59 75.1215 92.9413 75.0002 92.12H76.2602C76.4002 92.5867 76.6895 92.96 77.1282 93.24C77.5669 93.5293 78.0942 93.674 78.7102 93.674C79.4102 93.674 79.9795 93.4547 80.4182 93.016C80.8662 92.5773 81.0902 91.9613 81.0902 91.168V89.558C80.8382 90.006 80.4649 90.3793 79.9702 90.678C79.4755 90.9767 78.8969 91.126 78.2342 91.126C77.5529 91.126 76.9322 90.958 76.3722 90.622C75.8215 90.286 75.3875 89.8147 75.0702 89.208C74.7529 88.6013 74.5942 87.9107 74.5942 87.136C74.5942 86.352 74.7529 85.666 75.0702 85.078C75.3875 84.4807 75.8215 84.0187 76.3722 83.692C76.9322 83.3653 77.5529 83.202 78.2342 83.202ZM81.0902 87.15C81.0902 86.5713 80.9735 86.0673 80.7402 85.638C80.5069 85.2087 80.1895 84.882 79.7882 84.658C79.3962 84.4247 78.9622 84.308 78.4862 84.308C78.0102 84.308 77.5762 84.42 77.1842 84.644C76.7922 84.868 76.4795 85.1947 76.2462 85.624C76.0129 86.0533 75.8962 86.5573 75.8962 87.136C75.8962 87.724 76.0129 88.2373 76.2462 88.676C76.4795 89.1053 76.7922 89.4367 77.1842 89.67C77.5762 89.894 78.0102 90.006 78.4862 90.006C78.9622 90.006 79.3962 89.894 79.7882 89.67C80.1895 89.4367 80.5069 89.1053 80.7402 88.676C80.9735 88.2373 81.0902 87.7287 81.0902 87.15Z" fill="#757575"/>
<path d="M187.5 24.5C187.5 23.0413 188.079 21.6424 189.111 20.6109C190.142 19.5795 191.541 19 193 19C194.459 19 195.858 19.5795 196.889 20.6109C197.921 21.6424 198.5 23.0413 198.5 24.5C198.5 25.9587 197.921 27.3576 196.889 28.3891C195.858 29.4205 194.459 30 193 30C191.541 30 190.142 29.4205 189.111 28.3891C188.079 27.3576 187.5 25.9587 187.5 24.5ZM200.5 27.5C200.5 26.9091 200.616 26.3239 200.843 25.7779C201.069 25.232 201.4 24.7359 201.818 24.318C202.236 23.9002 202.732 23.5687 203.278 23.3425C203.824 23.1164 204.409 23 205 23C205.591 23 206.176 23.1164 206.722 23.3425C207.268 23.5687 207.764 23.9002 208.182 24.318C208.6 24.7359 208.931 25.232 209.157 25.7779C209.384 26.3239 209.5 26.9091 209.5 27.5C209.5 28.6935 209.026 29.8381 208.182 30.682C207.338 31.5259 206.193 32 205 32C203.807 32 202.662 31.5259 201.818 30.682C200.974 29.8381 200.5 28.6935 200.5 27.5ZM183.5 41.5C183.5 38.9804 184.501 36.5641 186.282 34.7825C188.064 33.0009 190.48 32 193 32C195.52 32 197.936 33.0009 199.718 34.7825C201.499 36.5641 202.5 38.9804 202.5 41.5V41.504L202.499 41.6627C202.496 41.8322 202.45 41.9983 202.365 42.1452C202.281 42.2922 202.16 42.4152 202.015 42.5027C199.294 44.1413 196.176 45.0049 193 45C189.704 45 186.619 44.088 183.987 42.5027C183.841 42.4153 183.72 42.2924 183.635 42.1455C183.55 41.9985 183.504 41.8324 183.501 41.6627L183.5 41.5ZM204.5 41.504L204.499 41.696C204.491 42.1404 204.385 42.5776 204.188 42.976C206.516 43.1196 208.841 42.6555 210.935 41.6293C211.097 41.5502 211.234 41.4287 211.333 41.2778C211.431 41.1269 211.487 40.9521 211.495 40.772C211.542 39.6537 211.299 38.5421 210.791 37.545C210.282 36.5479 209.524 35.6991 208.591 35.0807C207.658 34.4623 206.581 34.0953 205.465 34.0153C204.349 33.9353 203.23 34.145 202.219 34.624C203.703 36.6088 204.503 39.0216 204.499 41.5L204.5 41.504Z" fill="#0063C6"/>
<path fill-rule="evenodd" clip-rule="evenodd" d="M156.49 58.675C156.863 57.7775 158.137 57.7775 158.51 58.675L160.245 62.8467L164.748 63.2084C165.718 63.2859 166.112 64.4959 165.372 65.1292L161.942 68.0684L162.989 72.4625C163.215 73.4092 162.186 74.1567 161.356 73.65L157.5 71.295L153.644 73.65C152.814 74.1567 151.785 73.4083 152.011 72.4625L153.058 68.0684L149.627 65.1292C148.888 64.4959 149.282 63.2859 150.252 63.2084L154.755 62.8467L156.49 58.675Z" fill="#757575"/>
<path fill-rule="evenodd" clip-rule="evenodd" d="M176.49 58.675C176.863 57.7775 178.137 57.7775 178.51 58.675L180.245 62.8467L184.748 63.2084C185.718 63.2859 186.112 64.4959 185.372 65.1292L181.942 68.0684L182.989 72.4625C183.215 73.4092 182.186 74.1567 181.356 73.65L177.5 71.295L173.644 73.65C172.814 74.1567 171.785 73.4083 172.011 72.4625L173.058 68.0684L169.627 65.1292C168.888 64.4959 169.282 63.2859 170.252 63.2084L174.755 62.8467L176.49 58.675Z" fill="#757575"/>
<path fill-rule="evenodd" clip-rule="evenodd" d="M196.49 58.675C196.863 57.7775 198.137 57.7775 198.51 58.675L200.245 62.8467L204.748 63.2084C205.718 63.2859 206.112 64.4959 205.372 65.1292L201.942 68.0684L202.989 72.4625C203.215 73.4092 202.186 74.1567 201.356 73.65L197.5 71.295L193.644 73.65C192.814 74.1567 191.785 73.4083 192.011 72.4625L193.058 68.0684L189.627 65.1292C188.888 64.4959 189.282 63.2859 190.252 63.2084L194.755 62.8467L196.49 58.675Z" fill="#757575"/>
<path fill-rule="evenodd" clip-rule="evenodd" d="M216.49 58.675C216.863 57.7775 218.137 57.7775 218.51 58.675L220.245 62.8467L224.748 63.2084C225.718 63.2859 226.112 64.4959 225.372 65.1292L221.942 68.0684L222.989 72.4625C223.215 73.4092 222.186 74.1567 221.356 73.65L217.5 71.295L213.644 73.65C212.814 74.1567 211.785 73.4083 212.011 72.4625L213.058 68.0684L209.627 65.1292C208.888 64.4959 209.282 63.2859 210.252 63.2084L214.755 62.8467L216.49 58.675Z" fill="#757575"/>
<path fill-rule="evenodd" clip-rule="evenodd" d="M236.49 58.675C236.863 57.7775 238.137 57.7775 238.51 58.675L240.245 62.8467L244.748 63.2084C245.718 63.2859 246.112 64.4959 245.372 65.1292L241.942 68.0684L242.989 72.4625C243.215 73.4092 242.186 74.1567 241.356 73.65L237.5 71.295L233.644 73.65C232.814 74.1567 231.785 73.4083 232.011 72.4625L233.058 68.0684L229.627 65.1292C228.888 64.4959 229.282 63.2859 230.252 63.2084L234.755 62.8467L236.49 58.675Z" fill="#757575"/>
<path d="M125.032 82.04V80.878H127.664V91H126.376V82.04H125.032ZM134.346 91L131.336 87.612V91H130.062V80.64H131.336V86.73L134.29 83.328H136.068L132.456 87.15L136.082 91H134.346ZM144.547 86.422H141.565V89.446H140.375V86.422H137.407V85.344H140.375V82.306H141.565V85.344H144.547V86.422ZM150.081 87.15C150.081 86.3567 150.239 85.666 150.557 85.078C150.874 84.4807 151.313 84.0187 151.873 83.692C152.442 83.3653 153.091 83.202 153.819 83.202C154.761 83.202 155.536 83.4307 156.143 83.888C156.759 84.3453 157.165 84.98 157.361 85.792H155.989C155.858 85.3253 155.601 84.9567 155.219 84.686C154.845 84.4153 154.379 84.28 153.819 84.28C153.091 84.28 152.503 84.532 152.055 85.036C151.607 85.5307 151.383 86.2353 151.383 87.15C151.383 88.074 151.607 88.788 152.055 89.292C152.503 89.796 153.091 90.048 153.819 90.048C154.379 90.048 154.845 89.9173 155.219 89.656C155.592 89.3947 155.849 89.0213 155.989 88.536H157.361C157.155 89.32 156.745 89.95 156.129 90.426C155.513 90.8927 154.743 91.126 153.819 91.126C153.091 91.126 152.442 90.9627 151.873 90.636C151.313 90.3093 150.874 89.8473 150.557 89.25C150.239 88.6527 150.081 87.9527 150.081 87.15ZM165.864 83.328V91H164.59V89.866C164.348 90.258 164.007 90.566 163.568 90.79C163.139 91.0047 162.663 91.112 162.14 91.112C161.543 91.112 161.006 90.9907 160.53 90.748C160.054 90.496 159.676 90.1227 159.396 89.628C159.126 89.1333 158.99 88.5313 158.99 87.822V83.328H160.25V87.654C160.25 88.41 160.442 88.9933 160.824 89.404C161.207 89.8053 161.73 90.006 162.392 90.006C163.074 90.006 163.61 89.796 164.002 89.376C164.394 88.956 164.59 88.3447 164.59 87.542V83.328H165.864ZM170.732 91.126C170.144 91.126 169.616 91.028 169.15 90.832C168.683 90.6267 168.314 90.3467 168.044 89.992C167.773 89.628 167.624 89.2127 167.596 88.746H168.912C168.949 89.1287 169.126 89.4413 169.444 89.684C169.77 89.9267 170.195 90.048 170.718 90.048C171.203 90.048 171.586 89.9407 171.866 89.726C172.146 89.5113 172.286 89.2407 172.286 88.914C172.286 88.578 172.136 88.3307 171.838 88.172C171.539 88.004 171.077 87.8407 170.452 87.682C169.882 87.5327 169.416 87.3833 169.052 87.234C168.697 87.0753 168.389 86.8467 168.128 86.548C167.876 86.24 167.75 85.8387 167.75 85.344C167.75 84.952 167.866 84.5927 168.1 84.266C168.333 83.9393 168.664 83.6827 169.094 83.496C169.523 83.3 170.013 83.202 170.564 83.202C171.413 83.202 172.099 83.4167 172.622 83.846C173.144 84.2753 173.424 84.8633 173.462 85.61H172.188C172.16 85.2087 171.996 84.8867 171.698 84.644C171.408 84.4013 171.016 84.28 170.522 84.28C170.064 84.28 169.7 84.378 169.43 84.574C169.159 84.77 169.024 85.0267 169.024 85.344C169.024 85.596 169.103 85.806 169.262 85.974C169.43 86.1327 169.635 86.2633 169.878 86.366C170.13 86.4593 170.475 86.5667 170.914 86.688C171.464 86.8373 171.912 86.9867 172.258 87.136C172.603 87.276 172.897 87.4907 173.14 87.78C173.392 88.0693 173.522 88.4473 173.532 88.914C173.532 89.334 173.415 89.712 173.182 90.048C172.948 90.384 172.617 90.65 172.188 90.846C171.768 91.0327 171.282 91.126 170.732 91.126ZM176.884 84.378V88.9C176.884 89.2733 176.963 89.5393 177.122 89.698C177.281 89.8473 177.556 89.922 177.948 89.922H178.886V91H177.738C177.029 91 176.497 90.8367 176.142 90.51C175.787 90.1833 175.61 89.6467 175.61 88.9V84.378H174.616V83.328H175.61V81.396H176.884V83.328H178.886V84.378H176.884ZM183.776 91.126C183.057 91.126 182.404 90.9627 181.816 90.636C181.237 90.3093 180.78 89.8473 180.444 89.25C180.117 88.6433 179.954 87.9433 179.954 87.15C179.954 86.366 180.122 85.6753 180.458 85.078C180.803 84.4713 181.27 84.0093 181.858 83.692C182.446 83.3653 183.104 83.202 183.832 83.202C184.56 83.202 185.218 83.3653 185.806 83.692C186.394 84.0093 186.856 84.4667 187.192 85.064C187.537 85.6613 187.71 86.3567 187.71 87.15C187.71 87.9433 187.532 88.6433 187.178 89.25C186.832 89.8473 186.361 90.3093 185.764 90.636C185.166 90.9627 184.504 91.126 183.776 91.126ZM183.776 90.006C184.233 90.006 184.662 89.8987 185.064 89.684C185.465 89.4693 185.787 89.1473 186.03 88.718C186.282 88.2887 186.408 87.766 186.408 87.15C186.408 86.534 186.286 86.0113 186.044 85.582C185.801 85.1527 185.484 84.8353 185.092 84.63C184.7 84.4153 184.275 84.308 183.818 84.308C183.351 84.308 182.922 84.4153 182.53 84.63C182.147 84.8353 181.839 85.1527 181.606 85.582C181.372 86.0113 181.256 86.534 181.256 87.15C181.256 87.7753 181.368 88.3027 181.592 88.732C181.825 89.1613 182.133 89.4833 182.516 89.698C182.898 89.9033 183.318 90.006 183.776 90.006ZM198.611 83.188C199.208 83.188 199.74 83.314 200.207 83.566C200.673 83.8087 201.042 84.1773 201.313 84.672C201.583 85.1667 201.719 85.7687 201.719 86.478V91H200.459V86.66C200.459 85.8947 200.267 85.3113 199.885 84.91C199.511 84.4993 199.003 84.294 198.359 84.294C197.696 84.294 197.169 84.5087 196.777 84.938C196.385 85.358 196.189 85.9693 196.189 86.772V91H194.929V86.66C194.929 85.8947 194.737 85.3113 194.355 84.91C193.981 84.4993 193.473 84.294 192.829 84.294C192.166 84.294 191.639 84.5087 191.247 84.938C190.855 85.358 190.659 85.9693 190.659 86.772V91H189.385V83.328H190.659V84.434C190.911 84.0327 191.247 83.7247 191.667 83.51C192.096 83.2953 192.567 83.188 193.081 83.188C193.725 83.188 194.294 83.3327 194.789 83.622C195.283 83.9113 195.652 84.336 195.895 84.896C196.109 84.3547 196.464 83.9347 196.959 83.636C197.453 83.3373 198.004 83.188 198.611 83.188ZM210.808 86.87C210.808 87.1127 210.794 87.3693 210.766 87.64H204.634C204.681 88.396 204.938 88.9887 205.404 89.418C205.88 89.838 206.454 90.048 207.126 90.048C207.677 90.048 208.134 89.922 208.498 89.67C208.872 89.4087 209.133 89.0633 209.282 88.634H210.654C210.449 89.3713 210.038 89.9733 209.422 90.44C208.806 90.8973 208.041 91.126 207.126 91.126C206.398 91.126 205.745 90.9627 205.166 90.636C204.597 90.3093 204.149 89.8473 203.822 89.25C203.496 88.6433 203.332 87.9433 203.332 87.15C203.332 86.3567 203.491 85.6613 203.808 85.064C204.126 84.4667 204.569 84.0093 205.138 83.692C205.717 83.3653 206.38 83.202 207.126 83.202C207.854 83.202 208.498 83.3607 209.058 83.678C209.618 83.9953 210.048 84.434 210.346 84.994C210.654 85.5447 210.808 86.17 210.808 86.87ZM209.492 86.604C209.492 86.1187 209.385 85.7033 209.17 85.358C208.956 85.0033 208.662 84.7373 208.288 84.56C207.924 84.3733 207.518 84.28 207.07 84.28C206.426 84.28 205.876 84.4853 205.418 84.896C204.97 85.3067 204.714 85.876 204.648 86.604H209.492ZM213.764 84.574C213.988 84.1353 214.305 83.7947 214.716 83.552C215.136 83.3093 215.645 83.188 216.242 83.188V84.504H215.906C214.478 84.504 213.764 85.2787 213.764 86.828V91H212.49V83.328H213.764V84.574ZM224.609 83.202C225.272 83.202 225.851 83.3467 226.345 83.636C226.849 83.9253 227.223 84.2893 227.465 84.728V83.328H228.753V91.168C228.753 91.868 228.604 92.4887 228.305 93.03C228.007 93.5807 227.577 94.01 227.017 94.318C226.467 94.626 225.823 94.78 225.085 94.78C224.077 94.78 223.237 94.542 222.565 94.066C221.893 93.59 221.497 92.9413 221.375 92.12H222.635C222.775 92.5867 223.065 92.96 223.503 93.24C223.942 93.5293 224.469 93.674 225.085 93.674C225.785 93.674 226.355 93.4547 226.793 93.016C227.241 92.5773 227.465 91.9613 227.465 91.168V89.558C227.213 90.006 226.84 90.3793 226.345 90.678C225.851 90.9767 225.272 91.126 224.609 91.126C223.928 91.126 223.307 90.958 222.747 90.622C222.197 90.286 221.763 89.8147 221.445 89.208C221.128 88.6013 220.969 87.9107 220.969 87.136C220.969 86.352 221.128 85.666 221.445 85.078C221.763 84.4807 222.197 84.0187 222.747 83.692C223.307 83.3653 223.928 83.202 224.609 83.202ZM227.465 87.15C227.465 86.5713 227.349 86.0673 227.115 85.638C226.882 85.2087 226.565 84.882 226.163 84.658C225.771 84.4247 225.337 84.308 224.861 84.308C224.385 84.308 223.951 84.42 223.559 84.644C223.167 84.868 222.855 85.1947 222.621 85.624C222.388 86.0533 222.271 86.5573 222.271 87.136C222.271 87.724 222.388 88.2373 222.621 88.676C222.855 89.1053 223.167 89.4367 223.559 89.67C223.951 89.894 224.385 90.006 224.861 90.006C225.337 90.006 225.771 89.894 226.163 89.67C226.565 89.4367 226.882 89.1053 227.115 88.676C227.349 88.2373 227.465 87.7287 227.465 87.15ZM232.18 84.574C232.404 84.1353 232.721 83.7947 233.132 83.552C233.552 83.3093 234.061 83.188 234.658 83.188V84.504H234.322C232.894 84.504 232.18 85.2787 232.18 86.828V91H230.906V83.328H232.18V84.574ZM239.475 91.126C238.756 91.126 238.103 90.9627 237.515 90.636C236.936 90.3093 236.479 89.8473 236.143 89.25C235.816 88.6433 235.653 87.9433 235.653 87.15C235.653 86.366 235.821 85.6753 236.157 85.078C236.502 84.4713 236.969 84.0093 237.557 83.692C238.145 83.3653 238.803 83.202 239.531 83.202C240.259 83.202 240.917 83.3653 241.505 83.692C242.093 84.0093 242.555 84.4667 242.891 85.064C243.236 85.6613 243.409 86.3567 243.409 87.15C243.409 87.9433 243.231 88.6433 242.877 89.25C242.531 89.8473 242.06 90.3093 241.463 90.636C240.865 90.9627 240.203 91.126 239.475 91.126ZM239.475 90.006C239.932 90.006 240.361 89.8987 240.763 89.684C241.164 89.4693 241.486 89.1473 241.729 88.718C241.981 88.2887 242.107 87.766 242.107 87.15C242.107 86.534 241.985 86.0113 241.743 85.582C241.5 85.1527 241.183 84.8353 240.791 84.63C240.399 84.4153 239.974 84.308 239.517 84.308C239.05 84.308 238.621 84.4153 238.229 84.63C237.846 84.8353 237.538 85.1527 237.305 85.582C237.071 86.0113 236.955 86.534 236.955 87.15C236.955 87.7753 237.067 88.3027 237.291 88.732C237.524 89.1613 237.832 89.4833 238.215 89.698C238.597 89.9033 239.017 90.006 239.475 90.006ZM255.304 83.328L252.91 91H251.594L249.746 84.91L247.898 91H246.582L244.174 83.328H245.476L247.24 89.768L249.144 83.328H250.446L252.308 89.782L254.044 83.328H255.304ZM258.122 84.378V88.9C258.122 89.2733 258.202 89.5393 258.36 89.698C258.519 89.8473 258.794 89.922 259.186 89.922H260.124V91H258.976C258.267 91 257.735 90.8367 257.38 90.51C257.026 90.1833 256.848 89.6467 256.848 88.9V84.378H255.854V83.328H256.848V81.396H258.122V83.328H260.124V84.378H258.122ZM265.476 83.188C266.055 83.188 266.577 83.314 267.044 83.566C267.511 83.8087 267.875 84.1773 268.136 84.672C268.407 85.1667 268.542 85.7687 268.542 86.478V91H267.282V86.66C267.282 85.8947 267.091 85.3113 266.708 84.91C266.325 84.4993 265.803 84.294 265.14 84.294C264.468 84.294 263.931 84.504 263.53 84.924C263.138 85.344 262.942 85.9553 262.942 86.758V91H261.668V80.64H262.942V84.42C263.194 84.028 263.539 83.7247 263.978 83.51C264.426 83.2953 264.925 83.188 265.476 83.188Z" fill="#757575"/>
<g clip-path="url(#clip1_23111_11645)">
<path d="M328.664 27.3415H341.827V29.803H336.651V43.6406H333.805V29.803H328.653V27.3415H328.664ZM341.265 31.839H343.698V34.1165H343.744C343.824 33.7944 343.973 33.4838 344.191 33.1848C344.409 32.8857 344.673 32.5981 344.983 32.3566C345.293 32.1035 345.637 31.908 346.016 31.747C346.394 31.5974 346.785 31.5169 347.175 31.5169C347.473 31.5169 347.691 31.5284 347.806 31.5399C347.921 31.5514 348.036 31.5744 348.162 31.5859V34.0935C347.978 34.059 347.795 34.036 347.599 34.013C347.404 33.9899 347.221 33.9784 347.037 33.9784C346.601 33.9784 346.188 34.0705 345.798 34.243C345.408 34.4155 345.075 34.6801 344.788 35.0137C344.501 35.3587 344.271 35.7728 344.099 36.2789C343.927 36.7851 343.847 37.3602 343.847 38.0158V43.6291H341.253V31.839H341.265ZM360.085 43.6406H357.538V41.9957H357.492C357.17 42.5938 356.7 43.0654 356.069 43.422C355.438 43.7786 354.795 43.9626 354.141 43.9626C352.591 43.9626 351.467 43.583 350.778 42.8124C350.09 42.0417 349.745 40.88 349.745 39.3271V31.839H352.339V39.0741C352.339 40.1093 352.534 40.8454 352.936 41.271C353.326 41.6966 353.888 41.9152 354.6 41.9152C355.151 41.9152 355.598 41.8347 355.965 41.6621C356.333 41.4896 356.631 41.271 356.849 40.9835C357.079 40.7074 357.239 40.3623 357.343 39.9713C357.446 39.5802 357.492 39.1546 357.492 38.6945V31.8505H360.085V43.6406ZM364.504 39.8562C364.584 40.6154 364.871 41.1445 365.364 41.4551C365.869 41.7541 366.466 41.9152 367.166 41.9152C367.407 41.9152 367.682 41.8922 367.992 41.8577C368.302 41.8232 368.601 41.7426 368.864 41.6391C369.14 41.5356 369.358 41.3746 369.542 41.1675C369.714 40.9605 369.794 40.6959 369.783 40.3623C369.771 40.0288 369.645 39.7527 369.415 39.5457C369.186 39.3271 368.899 39.1661 368.543 39.028C368.187 38.9015 367.786 38.7865 367.327 38.6945C366.868 38.6025 366.409 38.4989 365.938 38.3954C365.456 38.2919 364.986 38.1539 364.538 38.0043C364.09 37.8548 363.689 37.6477 363.333 37.3832C362.977 37.1301 362.69 36.7966 362.484 36.394C362.266 35.9914 362.162 35.4968 362.162 34.8986C362.162 34.2545 362.323 33.7254 362.633 33.2883C362.943 32.8512 363.344 32.5061 363.815 32.2416C364.297 31.977 364.825 31.793 365.41 31.6779C365.995 31.5744 366.558 31.5169 367.086 31.5169C367.694 31.5169 368.279 31.5859 368.83 31.7124C369.381 31.839 369.886 32.046 370.333 32.3451C370.781 32.6326 371.148 33.0122 371.447 33.4723C371.745 33.9324 371.929 34.4961 372.009 35.1517H369.301C369.174 34.5306 368.899 34.105 368.451 33.8979C368.004 33.6794 367.487 33.5759 366.914 33.5759C366.73 33.5759 366.512 33.5874 366.259 33.6219C366.007 33.6564 365.777 33.7139 365.548 33.7944C365.33 33.8749 365.146 34.0014 364.986 34.1625C364.836 34.3235 364.756 34.5306 364.756 34.7951C364.756 35.1172 364.871 35.3702 365.089 35.5658C365.307 35.7613 365.594 35.9224 365.95 36.0604C366.305 36.1869 366.707 36.302 367.166 36.394C367.625 36.486 368.096 36.5895 368.578 36.693C369.048 36.7966 369.507 36.9346 369.966 37.0841C370.425 37.2337 370.827 37.4407 371.183 37.7053C371.538 37.9698 371.825 38.2919 372.043 38.683C372.261 39.0741 372.376 39.5687 372.376 40.1438C372.376 40.8454 372.215 41.4321 371.894 41.9267C371.573 42.4098 371.16 42.8124 370.655 43.1114C370.15 43.4105 369.576 43.6406 368.956 43.7786C368.337 43.9166 367.717 43.9856 367.109 43.9856C366.363 43.9856 365.674 43.9051 365.043 43.7326C364.412 43.56 363.861 43.307 363.402 42.9734C362.943 42.6283 362.576 42.2027 362.312 41.6966C362.048 41.1905 361.91 40.5809 361.887 39.8792H364.504V39.8562ZM373.065 31.839H375.027V28.2962H377.621V31.839H379.962V33.7829H377.621V40.0863C377.621 40.3623 377.632 40.5924 377.655 40.7994C377.678 40.995 377.735 41.1675 377.816 41.3055C377.896 41.4436 378.022 41.5471 378.194 41.6161C378.367 41.6851 378.585 41.7196 378.883 41.7196C379.067 41.7196 379.25 41.7196 379.434 41.7081C379.617 41.6966 379.801 41.6736 379.985 41.6276V43.6406C379.698 43.6751 379.411 43.6981 379.147 43.7326C378.872 43.7671 378.596 43.7786 378.309 43.7786C377.621 43.7786 377.07 43.7096 376.657 43.583C376.244 43.4565 375.911 43.261 375.681 43.0079C375.44 42.7549 375.291 42.4443 375.199 42.0647C375.119 41.6851 375.061 41.248 375.05 40.7649V33.8059H373.088V31.839H373.065ZM381.798 31.839H384.254V33.4378H384.3C384.667 32.7477 385.172 32.2646 385.826 31.9655C386.48 31.6664 387.18 31.5169 387.949 31.5169C388.879 31.5169 389.682 31.6779 390.37 32.0115C391.059 32.3336 391.633 32.7822 392.092 33.3573C392.551 33.9324 392.884 34.5996 393.113 35.3587C393.343 36.1179 393.457 36.9346 393.457 37.7973C393.457 38.591 393.354 39.3616 393.148 40.0978C392.941 40.8454 392.631 41.5011 392.218 42.0762C391.805 42.6513 391.277 43.0999 390.634 43.445C389.992 43.7901 389.246 43.9626 388.374 43.9626C387.995 43.9626 387.616 43.9281 387.238 43.8591C386.859 43.7901 386.492 43.6751 386.147 43.5255C385.803 43.376 385.47 43.1805 385.183 42.9389C384.885 42.6974 384.644 42.4213 384.437 42.1107H384.391V48H381.798V31.839ZM390.864 37.7513C390.864 37.2222 390.795 36.7045 390.657 36.1984C390.52 35.6923 390.313 35.2552 390.038 34.8641C389.762 34.4731 389.418 34.1625 389.016 33.9324C388.603 33.7024 388.133 33.5759 387.605 33.5759C386.515 33.5759 385.688 33.9554 385.137 34.7146C384.587 35.4738 384.311 36.486 384.311 37.7513C384.311 38.3494 384.38 38.9015 384.529 39.4076C384.678 39.9137 384.885 40.3508 385.183 40.7189C385.47 41.087 385.814 41.3746 386.216 41.5816C386.618 41.8002 387.088 41.9037 387.616 41.9037C388.213 41.9037 388.706 41.7772 389.12 41.5356C389.533 41.294 389.866 40.972 390.129 40.5924C390.393 40.2013 390.588 39.7642 390.703 39.2696C390.807 38.775 390.864 38.2689 390.864 37.7513ZM395.443 27.3415H398.036V29.803H395.443V27.3415ZM395.443 31.839H398.036V43.6406H395.443V31.839ZM400.355 27.3415H402.948V43.6406H400.355V27.3415ZM410.901 43.9626C409.96 43.9626 409.122 43.8016 408.388 43.491C407.653 43.1805 407.034 42.7434 406.517 42.2027C406.012 41.6506 405.622 40.995 405.358 40.2358C405.094 39.4766 404.956 38.637 404.956 37.7283C404.956 36.8311 405.094 36.0029 405.358 35.2437C405.622 34.4846 406.012 33.8289 406.517 33.2768C407.022 32.7247 407.653 32.2991 408.388 31.9885C409.122 31.6779 409.96 31.5169 410.901 31.5169C411.842 31.5169 412.68 31.6779 413.414 31.9885C414.149 32.2991 414.768 32.7362 415.285 33.2768C415.79 33.8289 416.18 34.4846 416.444 35.2437C416.708 36.0029 416.846 36.8311 416.846 37.7283C416.846 38.637 416.708 39.4766 416.444 40.2358C416.18 40.995 415.79 41.6506 415.285 42.2027C414.78 42.7549 414.149 43.1805 413.414 43.491C412.68 43.8016 411.842 43.9626 410.901 43.9626ZM410.901 41.9037C411.475 41.9037 411.98 41.7772 412.404 41.5356C412.829 41.294 413.173 40.972 413.449 40.5809C413.724 40.1898 413.919 39.7412 414.057 39.2466C414.183 38.752 414.252 38.2459 414.252 37.7283C414.252 37.2222 414.183 36.7275 414.057 36.2214C413.931 35.7153 413.724 35.2782 413.449 34.8871C413.173 34.4961 412.829 34.1855 412.404 33.9439C411.98 33.7024 411.475 33.5759 410.901 33.5759C410.327 33.5759 409.822 33.7024 409.398 33.9439C408.973 34.1855 408.629 34.5076 408.353 34.8871C408.078 35.2782 407.883 35.7153 407.745 36.2214C407.619 36.7275 407.55 37.2222 407.55 37.7283C407.55 38.2459 407.619 38.752 407.745 39.2466C407.871 39.7412 408.078 40.1898 408.353 40.5809C408.629 40.972 408.973 41.294 409.398 41.5356C409.822 41.7887 410.327 41.9037 410.901 41.9037ZM417.603 31.839H419.565V28.2962H422.159V31.839H424.5V33.7829H422.159V40.0863C422.159 40.3623 422.17 40.5924 422.193 40.7994C422.216 40.995 422.274 41.1675 422.354 41.3055C422.434 41.4436 422.561 41.5471 422.733 41.6161C422.905 41.6851 423.123 41.7196 423.421 41.7196C423.605 41.7196 423.789 41.7196 423.972 41.7081C424.156 41.6966 424.339 41.6736 424.523 41.6276V43.6406C424.236 43.6751 423.949 43.6981 423.685 43.7326C423.41 43.7671 423.134 43.7786 422.848 43.7786C422.159 43.7786 421.608 43.7096 421.195 43.583C420.782 43.4565 420.449 43.261 420.219 43.0079C419.979 42.7549 419.829 42.4443 419.738 42.0647C419.657 41.6851 419.6 41.248 419.588 40.7649V33.8059H417.626V31.839H417.603Z" fill="#191919"/>
<path d="M325.634 27.3415H313.745L310.073 16L306.389 27.3415L294.5 27.33L304.128 34.3465L300.445 45.6765L310.073 38.6715L319.69 45.6765L316.017 34.3465L325.634 27.3415Z" fill="#00B67A"/>
<path d="M316.844 36.9116L316.017 34.3465L310.073 38.6714L316.844 36.9116Z" fill="#005128"/>
</g>
<path fill-rule="evenodd" clip-rule="evenodd" d="M318.49 58.675C318.863 57.7775 320.137 57.7775 320.51 58.675L322.245 62.8467L326.748 63.2084C327.718 63.2859 328.112 64.4959 327.372 65.1292L323.942 68.0684L324.989 72.4625C325.215 73.4092 324.186 74.1567 323.356 73.65L319.5 71.295L315.644 73.65C314.814 74.1567 313.785 73.4083 314.011 72.4625L315.058 68.0684L311.627 65.1292C310.888 64.4959 311.282 63.2859 312.252 63.2084L316.755 62.8467L318.49 58.675Z" fill="#757575"/>
<path fill-rule="evenodd" clip-rule="evenodd" d="M338.49 58.675C338.863 57.7775 340.137 57.7775 340.51 58.675L342.245 62.8467L346.748 63.2084C347.718 63.2859 348.112 64.4959 347.372 65.1292L343.942 68.0684L344.989 72.4625C345.215 73.4092 344.186 74.1567 343.356 73.65L339.5 71.295L335.644 73.65C334.814 74.1567 333.785 73.4083 334.011 72.4625L335.058 68.0684L331.627 65.1292C330.888 64.4959 331.282 63.2859 332.252 63.2084L336.755 62.8467L338.49 58.675Z" fill="#757575"/>
<path fill-rule="evenodd" clip-rule="evenodd" d="M358.49 58.675C358.863 57.7775 360.137 57.7775 360.51 58.675L362.245 62.8467L366.748 63.2084C367.718 63.2859 368.112 64.4959 367.372 65.1292L363.942 68.0684L364.989 72.4625C365.215 73.4092 364.186 74.1567 363.356 73.65L359.5 71.295L355.644 73.65C354.814 74.1567 353.785 73.4083 354.011 72.4625L355.058 68.0684L351.627 65.1292C350.888 64.4959 351.282 63.2859 352.252 63.2084L356.755 62.8467L358.49 58.675Z" fill="#757575"/>
<path fill-rule="evenodd" clip-rule="evenodd" d="M378.49 58.675C378.863 57.7775 380.137 57.7775 380.51 58.675L382.245 62.8467L386.748 63.2084C387.718 63.2859 388.112 64.4959 387.372 65.1292L383.942 68.0684L384.989 72.4625C385.215 73.4092 384.186 74.1567 383.356 73.65L379.5 71.295L375.644 73.65C374.814 74.1567 373.785 73.4083 374.011 72.4625L375.058 68.0684L371.627 65.1292C370.888 64.4959 371.282 63.2859 372.252 63.2084L376.755 62.8467L378.49 58.675Z" fill="#757575"/>
<path fill-rule="evenodd" clip-rule="evenodd" d="M398.49 58.675C398.863 57.7775 400.137 57.7775 400.51 58.675L402.245 62.8467L406.748 63.2084C407.718 63.2859 408.112 64.4959 407.372 65.1292L403.942 68.0684L404.989 72.4625C405.215 73.4092 404.186 74.1567 403.356 73.65L399.5 71.295L395.644 73.65C394.814 74.1567 393.785 73.4083 394.011 72.4625L395.058 68.0684L391.627 65.1292C390.888 64.4959 391.282 63.2859 392.252 63.2084L396.755 62.8467L398.49 58.675Z" fill="#757575"/>
<path d="M327.06 88.746V87.78L331.974 80.976H333.5V87.64H334.9V88.746H333.5V91H332.24V88.746H327.06ZM332.296 82.306L328.53 87.64H332.296V82.306ZM336.789 91.084C336.546 91.084 336.341 91 336.173 90.832C336.005 90.664 335.921 90.4587 335.921 90.216C335.921 89.9733 336.005 89.768 336.173 89.6C336.341 89.432 336.546 89.348 336.789 89.348C337.022 89.348 337.218 89.432 337.377 89.6C337.545 89.768 337.629 89.9733 337.629 90.216C337.629 90.4587 337.545 90.664 337.377 90.832C337.218 91 337.022 91.084 336.789 91.084ZM340.96 85.736C340.437 85.5307 340.036 85.232 339.756 84.84C339.476 84.448 339.336 83.972 339.336 83.412C339.336 82.908 339.462 82.4553 339.714 82.054C339.966 81.6433 340.339 81.3213 340.834 81.088C341.338 80.8453 341.945 80.724 342.654 80.724C343.363 80.724 343.965 80.8453 344.46 81.088C344.964 81.3213 345.342 81.6433 345.594 82.054C345.855 82.4553 345.986 82.908 345.986 83.412C345.986 83.9533 345.841 84.4293 345.552 84.84C345.263 85.2413 344.866 85.54 344.362 85.736C344.941 85.9133 345.398 86.226 345.734 86.674C346.079 87.1127 346.252 87.6447 346.252 88.27C346.252 88.8767 346.103 89.4087 345.804 89.866C345.505 90.314 345.081 90.664 344.53 90.916C343.989 91.1587 343.363 91.28 342.654 91.28C341.945 91.28 341.319 91.1587 340.778 90.916C340.246 90.664 339.831 90.314 339.532 89.866C339.233 89.4087 339.084 88.8767 339.084 88.27C339.084 87.6447 339.252 87.108 339.588 86.66C339.924 86.212 340.381 85.904 340.96 85.736ZM344.754 83.566C344.754 82.9967 344.567 82.558 344.194 82.25C343.821 81.942 343.307 81.788 342.654 81.788C342.01 81.788 341.501 81.942 341.128 82.25C340.755 82.558 340.568 83.0013 340.568 83.58C340.568 84.1027 340.759 84.5227 341.142 84.84C341.534 85.1573 342.038 85.316 342.654 85.316C343.279 85.316 343.783 85.1573 344.166 84.84C344.558 84.5133 344.754 84.0887 344.754 83.566ZM342.654 86.296C341.963 86.296 341.399 86.4593 340.96 86.786C340.521 87.1033 340.302 87.584 340.302 88.228C340.302 88.8253 340.512 89.306 340.932 89.67C341.361 90.034 341.935 90.216 342.654 90.216C343.373 90.216 343.942 90.034 344.362 89.67C344.782 89.306 344.992 88.8253 344.992 88.228C344.992 87.6027 344.777 87.1267 344.348 86.8C343.919 86.464 343.354 86.296 342.654 86.296ZM353.161 84.574C353.385 84.1353 353.702 83.7947 354.113 83.552C354.533 83.3093 355.041 83.188 355.639 83.188V84.504H355.303C353.875 84.504 353.161 85.2787 353.161 86.828V91H351.887V83.328H353.161V84.574ZM356.633 87.136C356.633 86.352 356.792 85.666 357.109 85.078C357.427 84.4807 357.861 84.0187 358.411 83.692C358.971 83.3653 359.592 83.202 360.273 83.202C360.945 83.202 361.529 83.3467 362.023 83.636C362.518 83.9253 362.887 84.2893 363.129 84.728V83.328H364.417V91H363.129V89.572C362.877 90.02 362.499 90.3933 361.995 90.692C361.501 90.9813 360.922 91.126 360.259 91.126C359.578 91.126 358.962 90.958 358.411 90.622C357.861 90.286 357.427 89.8147 357.109 89.208C356.792 88.6013 356.633 87.9107 356.633 87.136ZM363.129 87.15C363.129 86.5713 363.013 86.0673 362.779 85.638C362.546 85.2087 362.229 84.882 361.827 84.658C361.435 84.4247 361.001 84.308 360.525 84.308C360.049 84.308 359.615 84.42 359.223 84.644C358.831 84.868 358.519 85.1947 358.285 85.624C358.052 86.0533 357.935 86.5573 357.935 87.136C357.935 87.724 358.052 88.2373 358.285 88.676C358.519 89.1053 358.831 89.4367 359.223 89.67C359.615 89.894 360.049 90.006 360.525 90.006C361.001 90.006 361.435 89.894 361.827 89.67C362.229 89.4367 362.546 89.1053 362.779 88.676C363.013 88.2373 363.129 87.7287 363.129 87.15ZM368.124 84.378V88.9C368.124 89.2733 368.204 89.5393 368.362 89.698C368.521 89.8473 368.796 89.922 369.188 89.922H370.126V91H368.978C368.269 91 367.737 90.8367 367.382 90.51C367.028 90.1833 366.85 89.6467 366.85 88.9V84.378H365.856V83.328H366.85V81.396H368.124V83.328H370.126V84.378H368.124ZM372.328 82.082C372.085 82.082 371.88 81.998 371.712 81.83C371.544 81.662 371.46 81.4567 371.46 81.214C371.46 80.9713 371.544 80.766 371.712 80.598C371.88 80.43 372.085 80.346 372.328 80.346C372.561 80.346 372.757 80.43 372.916 80.598C373.084 80.766 373.168 80.9713 373.168 81.214C373.168 81.4567 373.084 81.662 372.916 81.83C372.757 81.998 372.561 82.082 372.328 82.082ZM372.944 83.328V91H371.67V83.328H372.944ZM378.853 83.188C379.786 83.188 380.542 83.4727 381.121 84.042C381.7 84.602 381.989 85.414 381.989 86.478V91H380.729V86.66C380.729 85.8947 380.538 85.3113 380.155 84.91C379.772 84.4993 379.25 84.294 378.587 84.294C377.915 84.294 377.378 84.504 376.977 84.924C376.585 85.344 376.389 85.9553 376.389 86.758V91H375.115V83.328H376.389V84.42C376.641 84.028 376.982 83.7247 377.411 83.51C377.85 83.2953 378.33 83.188 378.853 83.188ZM387.234 83.202C387.897 83.202 388.476 83.3467 388.97 83.636C389.474 83.9253 389.848 84.2893 390.09 84.728V83.328H391.378V91.168C391.378 91.868 391.229 92.4887 390.93 93.03C390.632 93.5807 390.202 94.01 389.642 94.318C389.092 94.626 388.448 94.78 387.71 94.78C386.702 94.78 385.862 94.542 385.19 94.066C384.518 93.59 384.122 92.9413 384 92.12H385.26C385.4 92.5867 385.69 92.96 386.128 93.24C386.567 93.5293 387.094 93.674 387.71 93.674C388.41 93.674 388.98 93.4547 389.418 93.016C389.866 92.5773 390.09 91.9613 390.09 91.168V89.558C389.838 90.006 389.465 90.3793 388.97 90.678C388.476 90.9767 387.897 91.126 387.234 91.126C386.553 91.126 385.932 90.958 385.372 90.622C384.822 90.286 384.388 89.8147 384.07 89.208C383.753 88.6013 383.594 87.9107 383.594 87.136C383.594 86.352 383.753 85.666 384.07 85.078C384.388 84.4807 384.822 84.0187 385.372 83.692C385.932 83.3653 386.553 83.202 387.234 83.202ZM390.09 87.15C390.09 86.5713 389.974 86.0673 389.74 85.638C389.507 85.2087 389.19 84.882 388.788 84.658C388.396 84.4247 387.962 84.308 387.486 84.308C387.01 84.308 386.576 84.42 386.184 84.644C385.792 84.868 385.48 85.1947 385.246 85.624C385.013 86.0533 384.896 86.5573 384.896 87.136C384.896 87.724 385.013 88.2373 385.246 88.676C385.48 89.1053 385.792 89.4367 386.184 89.67C386.576 89.894 387.01 90.006 387.486 90.006C387.962 90.006 388.396 89.894 388.788 89.67C389.19 89.4367 389.507 89.1053 389.74 88.676C389.974 88.2373 390.09 87.7287 390.09 87.15Z" fill="#757575"/>
<defs>
<clipPath id="clip0_23111_11645">
<rect width="95" height="32" fill="white" transform="translate(3 16)"/>
</clipPath>
<clipPath id="clip1_23111_11645">
<rect width="130" height="32" fill="white" transform="translate(294.5 16)"/>
</clipPath>
</defs>
</svg>
