<svg width="142" height="40" viewBox="0 0 142 40" fill="none" xmlns="http://www.w3.org/2000/svg">
<rect x="0.5" y="16" width="7.99999" height="7.99999" fill="#039855"/>
<rect x="24.5" y="24" width="8" height="7.99999" transform="rotate(180 24.5 24)" fill="#027A48"/>
<path d="M8.5 16L16.5 8V16L8.5 24V16Z" fill="#A6F4C5"/>
<path d="M16.5 24L8.50001 32L8.50001 24L16.5 16L16.5 24Z" fill="#6CE9A6"/>
<path d="M0.5 16L16.5 0V7.99999L8.49999 16H0.5Z" fill="#32D583"/>
<path d="M24.5 24L8.50002 40L8.50002 32L16.5 24L24.5 24Z" fill="#12B76A"/>
<path d="M41.9233 28.5667C40.6633 28.5667 39.4422 28.3878 38.2599 28.0301C37.0933 27.6723 36.1677 27.1978 35.4833 26.6067L36.5333 24.2501C37.2022 24.779 38.0188 25.2145 38.9833 25.5567C39.9633 25.8834 40.9433 26.0467 41.9233 26.0467C43.1366 26.0467 44.0388 25.8523 44.6299 25.4634C45.2366 25.0745 45.5399 24.5612 45.5399 23.9234C45.5399 23.4567 45.3688 23.0756 45.0266 22.7801C44.6999 22.469 44.2799 22.2278 43.7666 22.0567C43.2533 21.8856 42.5533 21.6912 41.6666 21.4734C40.4222 21.1778 39.4111 20.8823 38.6333 20.5867C37.8711 20.2912 37.2099 19.8323 36.6499 19.2101C36.1055 18.5723 35.8333 17.7167 35.8333 16.6434C35.8333 15.7412 36.0744 14.9245 36.5566 14.1934C37.0544 13.4467 37.7933 12.8556 38.7733 12.4201C39.7688 11.9845 40.9822 11.7667 42.4133 11.7667C43.4088 11.7667 44.3888 11.8912 45.3533 12.1401C46.3177 12.389 47.1499 12.7467 47.8499 13.2134L46.8933 15.5701C46.1777 15.1501 45.4311 14.8312 44.6533 14.6134C43.8755 14.3956 43.1211 14.2867 42.3899 14.2867C41.1922 14.2867 40.2977 14.489 39.7066 14.8934C39.1311 15.2978 38.8433 15.8345 38.8433 16.5034C38.8433 16.9701 39.0066 17.3512 39.3333 17.6467C39.6755 17.9423 40.1033 18.1756 40.6166 18.3467C41.1299 18.5178 41.8299 18.7123 42.7166 18.9301C43.9299 19.2101 44.9255 19.5056 45.7033 19.8167C46.481 20.1123 47.1422 20.5712 47.6866 21.1934C48.2466 21.8156 48.5266 22.6556 48.5266 23.7134C48.5266 24.6156 48.2777 25.4323 47.7799 26.1634C47.2977 26.8945 46.5588 27.4778 45.5633 27.9134C44.5677 28.349 43.3544 28.5667 41.9233 28.5667Z" fill="#101828"/>
<path d="M51.2544 15.8734H54.1711V28.3334H51.2544V15.8734ZM52.7244 13.8201C52.1955 13.8201 51.7522 13.6567 51.3944 13.3301C51.0366 12.9878 50.8577 12.5678 50.8577 12.0701C50.8577 11.5723 51.0366 11.1601 51.3944 10.8334C51.7522 10.4912 52.1955 10.3201 52.7244 10.3201C53.2533 10.3201 53.6966 10.4834 54.0544 10.8101C54.4122 11.1212 54.5911 11.5178 54.5911 12.0001C54.5911 12.5134 54.4122 12.949 54.0544 13.3067C53.7122 13.649 53.2689 13.8201 52.7244 13.8201Z" fill="#101828"/>
<path d="M61.8492 28.4967C60.8381 28.4967 59.8503 28.3645 58.8859 28.1001C57.9214 27.8356 57.1514 27.5012 56.5759 27.0967L57.6959 24.8801C58.2559 25.2534 58.9248 25.5567 59.7025 25.7901C60.4959 26.0078 61.2736 26.1167 62.0359 26.1167C63.7781 26.1167 64.6492 25.6578 64.6492 24.7401C64.6492 24.3045 64.4236 24.0012 63.9725 23.8301C63.537 23.659 62.8292 23.4956 61.8492 23.3401C60.8225 23.1845 59.9825 23.0056 59.3292 22.8034C58.6914 22.6012 58.1314 22.2512 57.6492 21.7534C57.1825 21.2401 56.9492 20.5323 56.9492 19.6301C56.9492 18.4478 57.4392 17.5067 58.4192 16.8067C59.4148 16.0912 60.7525 15.7334 62.4325 15.7334C63.2881 15.7334 64.1436 15.8345 64.9992 16.0367C65.8548 16.2234 66.5548 16.4801 67.0992 16.8067L65.9792 19.0234C64.9214 18.4012 63.7314 18.0901 62.4092 18.0901C61.5536 18.0901 60.9003 18.2223 60.4492 18.4867C60.0136 18.7356 59.7959 19.0701 59.7959 19.4901C59.7959 19.9567 60.0292 20.2912 60.4959 20.4934C60.9781 20.6801 61.717 20.859 62.7125 21.0301C63.7081 21.1856 64.5248 21.3645 65.1625 21.5667C65.8003 21.769 66.3448 22.1112 66.7959 22.5934C67.2625 23.0756 67.4959 23.7601 67.4959 24.6467C67.4959 25.8134 66.9903 26.7467 65.9792 27.4467C64.9681 28.1467 63.5914 28.4967 61.8492 28.4967Z" fill="#101828"/>
<path d="M81.4465 15.8734L75.6131 29.3367C75.0687 30.6901 74.4076 31.639 73.6298 32.1834C72.852 32.7434 71.9109 33.0234 70.8065 33.0234C70.1842 33.0234 69.5698 32.9223 68.9631 32.7201C68.3565 32.5178 67.8587 32.2378 67.4698 31.8801L68.6365 29.7334C68.9165 29.9978 69.2431 30.2078 69.6165 30.3634C70.0054 30.519 70.3942 30.5967 70.7831 30.5967C71.2965 30.5967 71.7165 30.4645 72.0431 30.2001C72.3854 29.9356 72.6965 29.4923 72.9765 28.8701L73.1865 28.3801L67.7498 15.8734H70.7831L74.7031 25.0901L78.6465 15.8734H81.4465Z" fill="#101828"/>
<path d="M90.176 15.7334C91.3894 15.7334 92.4705 15.9978 93.4194 16.5267C94.3838 17.0556 95.1383 17.8023 95.6827 18.7667C96.2271 19.7312 96.4994 20.8434 96.4994 22.1034C96.4994 23.3634 96.2271 24.4834 95.6827 25.4634C95.1383 26.4278 94.3838 27.1745 93.4194 27.7034C92.4705 28.2323 91.3894 28.4967 90.176 28.4967C88.496 28.4967 87.166 27.9367 86.186 26.8167V32.8601H83.2694V15.8734H86.046V17.5067C86.5283 16.9156 87.1194 16.4723 87.8194 16.1767C88.5349 15.8812 89.3205 15.7334 90.176 15.7334ZM89.8494 26.0001C90.9227 26.0001 91.8016 25.6423 92.486 24.9267C93.186 24.2112 93.536 23.2701 93.536 22.1034C93.536 20.9367 93.186 19.9956 92.486 19.2801C91.8016 18.5645 90.9227 18.2067 89.8494 18.2067C89.1494 18.2067 88.5194 18.3701 87.9594 18.6967C87.3994 19.0078 86.956 19.459 86.6294 20.0501C86.3027 20.6412 86.1394 21.3256 86.1394 22.1034C86.1394 22.8812 86.3027 23.5656 86.6294 24.1567C86.956 24.7478 87.3994 25.2067 87.9594 25.5334C88.5194 25.8445 89.1494 26.0001 89.8494 26.0001Z" fill="#101828"/>
<path d="M106.335 15.7334C107.907 15.7334 109.167 16.1923 110.115 17.1101C111.064 18.0278 111.539 19.389 111.539 21.1934V28.3334H108.622V21.5667C108.622 20.4778 108.365 19.6612 107.852 19.1167C107.339 18.5567 106.608 18.2767 105.659 18.2767C104.585 18.2767 103.738 18.6034 103.115 19.2567C102.493 19.8945 102.182 20.8201 102.182 22.0334V28.3334H99.2655V11.0201H102.182V17.3201C102.664 16.8067 103.255 16.4178 103.955 16.1534C104.671 15.8734 105.464 15.7334 106.335 15.7334Z" fill="#101828"/>
<path d="M127.302 15.8734V28.3334H124.525V26.7467C124.059 27.3067 123.475 27.7423 122.775 28.0534C122.075 28.349 121.321 28.4967 120.512 28.4967C118.848 28.4967 117.533 28.0378 116.569 27.1201C115.62 26.1867 115.145 24.8101 115.145 22.9901V15.8734H118.062V22.5934C118.062 23.7134 118.311 24.5534 118.809 25.1134C119.322 25.6578 120.045 25.9301 120.979 25.9301C122.021 25.9301 122.845 25.6112 123.452 24.9734C124.074 24.3201 124.385 23.3867 124.385 22.1734V15.8734H127.302Z" fill="#101828"/>
<path d="M134.971 28.4967C133.96 28.4967 132.972 28.3645 132.008 28.1001C131.043 27.8356 130.273 27.5012 129.698 27.0967L130.818 24.8801C131.378 25.2534 132.046 25.5567 132.824 25.7901C133.618 26.0078 134.395 26.1167 135.158 26.1167C136.9 26.1167 137.771 25.6578 137.771 24.7401C137.771 24.3045 137.545 24.0012 137.094 23.8301C136.659 23.659 135.951 23.4956 134.971 23.3401C133.944 23.1845 133.104 23.0056 132.451 22.8034C131.813 22.6012 131.253 22.2512 130.771 21.7534C130.304 21.2401 130.071 20.5323 130.071 19.6301C130.071 18.4478 130.561 17.5067 131.541 16.8067C132.536 16.0912 133.874 15.7334 135.554 15.7334C136.41 15.7334 137.265 15.8345 138.121 16.0367C138.976 16.2234 139.676 16.4801 140.221 16.8067L139.101 19.0234C138.043 18.4012 136.853 18.0901 135.531 18.0901C134.675 18.0901 134.022 18.2223 133.571 18.4867C133.135 18.7356 132.918 19.0701 132.918 19.4901C132.918 19.9567 133.151 20.2912 133.618 20.4934C134.1 20.6801 134.839 20.859 135.834 21.0301C136.83 21.1856 137.646 21.3645 138.284 21.5667C138.922 21.769 139.466 22.1112 139.918 22.5934C140.384 23.0756 140.618 23.7601 140.618 24.6467C140.618 25.8134 140.112 26.7467 139.101 27.4467C138.09 28.1467 136.713 28.4967 134.971 28.4967Z" fill="#101828"/>
</svg>
