<svg width="1361" height="765" viewBox="0 0 1361 765" fill="none" xmlns="http://www.w3.org/2000/svg">
<g clip-path="url(#clip0_22926_22236)">
<rect x="0.5" width="1360" height="765" rx="8" fill="url(#paint0_linear_22926_22236)"/>
<rect x="0.5" y="649" width="1360" height="116" fill="url(#paint1_linear_22926_22236)"/>
<rect x="0.5" width="1360" height="765" fill="black" fill-opacity="0.1"/>
<rect opacity="0.3" x="40.5" y="741" width="1300" height="8" rx="4" fill="white"/>
<rect opacity="0.5" x="40.5" y="741" width="200.301" height="8" rx="4" fill="white"/>
<rect x="40.5" y="741" width="8" height="8" rx="4" fill="white"/>
<path d="M14.7 739.863C14.7 738.612 16.0725 737.845 17.1386 738.501L25.4857 743.637C26.501 744.262 26.501 745.738 25.4857 746.363L17.1386 751.499C16.0725 752.155 14.7 751.388 14.7 750.137V739.863Z" fill="white"/>
<path d="M680.5 343C702.591 343 720.5 360.909 720.5 383C720.5 405.091 702.591 423 680.5 423C658.409 423 640.5 405.091 640.5 383C640.5 360.909 658.409 343 680.5 343ZM674.25 368.328C672.583 367.397 670.5 368.561 670.5 370.424V395.576C670.5 397.439 672.583 398.603 674.25 397.672L696.75 385.096C698.416 384.164 698.416 381.836 696.75 380.904L674.25 368.328Z" fill="white" fill-opacity="0.3"/>
</g>
<defs>
<linearGradient id="paint0_linear_22926_22236" x1="-89.4069" y1="386.703" x2="2040.5" y2="385.855" gradientUnits="userSpaceOnUse">
<stop stop-color="#0080FF"/>
<stop offset="1" stop-color="#63F17B"/>
</linearGradient>
<linearGradient id="paint1_linear_22926_22236" x1="680.5" y1="649" x2="680.5" y2="765" gradientUnits="userSpaceOnUse">
<stop stop-opacity="0"/>
<stop offset="1" stop-opacity="0.2"/>
</linearGradient>
<clipPath id="clip0_22926_22236">
<rect x="0.5" width="1360" height="765" rx="8" fill="white"/>
</clipPath>
</defs>
</svg>
